<mxfile host="Electron" agent="Mozilla/5.0 (Windows NT 10.0; Win64; x64) AppleWebKit/537.36 (KHTML, like Gecko) draw.io/24.7.17 Chrome/128.0.6613.36 Electron/32.0.1 Safari/537.36" version="24.7.17" pages="3">
  <diagram name="Page-1" id="dCxARPnz_PJ0fLtXInRn">
    <mxGraphModel dx="398" dy="232" grid="1" gridSize="10" guides="1" tooltips="1" connect="1" arrows="1" fold="1" page="1" pageScale="1" pageWidth="850" pageHeight="1100" math="0" shadow="0">
      <root>
        <mxCell id="0" />
        <mxCell id="1" parent="0" />
        <mxCell id="dLXo_YXkuhED8PBIhZN9-38" style="edgeStyle=orthogonalEdgeStyle;rounded=0;orthogonalLoop=1;jettySize=auto;html=1;entryX=0.5;entryY=1;entryDx=0;entryDy=0;entryPerimeter=0;" parent="1" edge="1">
          <mxGeometry relative="1" as="geometry">
            <mxPoint x="220.0344827586207" y="790" as="sourcePoint" />
          </mxGeometry>
        </mxCell>
        <mxCell id="dLXo_YXkuhED8PBIhZN9-69" value="Конец" style="rounded=1;whiteSpace=wrap;html=1;arcSize=50;container=0;strokeWidth=2;fontFamily=Times New Roman;fontSize=12;" parent="1" vertex="1">
          <mxGeometry x="10" y="520" width="200" height="30" as="geometry" />
        </mxCell>
        <mxCell id="dLXo_YXkuhED8PBIhZN9-70" value="" style="edgeStyle=orthogonalEdgeStyle;rounded=0;orthogonalLoop=1;jettySize=auto;html=1;fontFamily=Times New Roman;fontSize=12;" parent="1" source="dLXo_YXkuhED8PBIhZN9-67" target="dLXo_YXkuhED8PBIhZN9-69" edge="1">
          <mxGeometry relative="1" as="geometry">
            <Array as="points">
              <mxPoint x="110" y="550" />
              <mxPoint x="110" y="550" />
            </Array>
          </mxGeometry>
        </mxCell>
        <mxCell id="dLXo_YXkuhED8PBIhZN9-3" style="edgeStyle=orthogonalEdgeStyle;rounded=0;orthogonalLoop=1;jettySize=auto;html=1;entryX=0.5;entryY=0;entryDx=0;entryDy=0;fontFamily=Times New Roman;fontSize=12;" parent="1" source="dLXo_YXkuhED8PBIhZN9-2" target="dLXo_YXkuhED8PBIhZN9-4" edge="1">
          <mxGeometry relative="1" as="geometry">
            <mxPoint x="130" y="50" as="targetPoint" />
          </mxGeometry>
        </mxCell>
        <mxCell id="dLXo_YXkuhED8PBIhZN9-2" value="Начало" style="rounded=1;whiteSpace=wrap;html=1;arcSize=50;container=0;strokeWidth=2;fontFamily=Times New Roman;fontSize=12;" parent="1" vertex="1">
          <mxGeometry x="10" y="10" width="200" height="30" as="geometry" />
        </mxCell>
        <mxCell id="dLXo_YXkuhED8PBIhZN9-66" style="edgeStyle=orthogonalEdgeStyle;rounded=0;orthogonalLoop=1;jettySize=auto;html=1;entryX=0.5;entryY=0;entryDx=0;entryDy=0;fontFamily=Times New Roman;fontSize=12;" parent="1" source="dLXo_YXkuhED8PBIhZN9-4" target="dLXo_YXkuhED8PBIhZN9-14" edge="1">
          <mxGeometry relative="1" as="geometry" />
        </mxCell>
        <mxCell id="dLXo_YXkuhED8PBIhZN9-4" value="Ввод n" style="shape=parallelogram;perimeter=parallelogramPerimeter;whiteSpace=wrap;html=1;fixedSize=1;size=30;container=0;strokeWidth=2;fontFamily=Times New Roman;fontSize=12;" parent="1" vertex="1">
          <mxGeometry x="10" y="60" width="200" height="30" as="geometry" />
        </mxCell>
        <mxCell id="dLXo_YXkuhED8PBIhZN9-5" value="n - Целое неотрицательное число в 10СС" style="strokeWidth=2;html=1;shape=mxgraph.flowchart.annotation_2;align=left;labelPosition=right;pointerEvents=1;container=0;fontFamily=Times New Roman;fontSize=12;" parent="1" vertex="1">
          <mxGeometry x="257.5" y="60" width="25" height="30" as="geometry" />
        </mxCell>
        <mxCell id="dLXo_YXkuhED8PBIhZN9-6" style="edgeStyle=orthogonalEdgeStyle;rounded=0;orthogonalLoop=1;jettySize=auto;html=1;strokeColor=default;endArrow=none;endFill=0;dashed=1;entryX=0;entryY=0.5;entryDx=0;entryDy=0;entryPerimeter=0;fontFamily=Times New Roman;fontSize=12;" parent="1" source="dLXo_YXkuhED8PBIhZN9-4" target="dLXo_YXkuhED8PBIhZN9-5" edge="1">
          <mxGeometry relative="1" as="geometry">
            <mxPoint x="252" y="75" as="targetPoint" />
            <Array as="points" />
          </mxGeometry>
        </mxCell>
        <mxCell id="dLXo_YXkuhED8PBIhZN9-14" value="i = 0" style="whiteSpace=wrap;html=1;container=0;strokeWidth=2;fontFamily=Times New Roman;fontSize=12;" parent="1" vertex="1">
          <mxGeometry x="10" y="110" width="200" height="30" as="geometry" />
        </mxCell>
        <mxCell id="dLXo_YXkuhED8PBIhZN9-19" style="edgeStyle=orthogonalEdgeStyle;rounded=0;orthogonalLoop=1;jettySize=auto;html=1;entryX=0.5;entryY=0;entryDx=0;entryDy=0;entryPerimeter=0;fontFamily=Times New Roman;fontSize=12;" parent="1" source="dLXo_YXkuhED8PBIhZN9-14" edge="1">
          <mxGeometry relative="1" as="geometry">
            <mxPoint x="110" y="159.9999999999999" as="targetPoint" />
          </mxGeometry>
        </mxCell>
        <mxCell id="dLXo_YXkuhED8PBIhZN9-26" value="// - целочисленное деление" style="strokeWidth=2;html=1;shape=mxgraph.flowchart.annotation_2;align=left;labelPosition=right;pointerEvents=1;container=0;fontFamily=Times New Roman;fontSize=12;" parent="1" vertex="1">
          <mxGeometry x="250" y="350" width="25" height="30" as="geometry" />
        </mxCell>
        <mxCell id="dLXo_YXkuhED8PBIhZN9-27" style="edgeStyle=orthogonalEdgeStyle;rounded=0;orthogonalLoop=1;jettySize=auto;html=1;entryX=0;entryY=0.5;entryDx=0;entryDy=0;entryPerimeter=0;strokeColor=default;endArrow=none;endFill=0;dashed=1;exitX=1;exitY=0.5;exitDx=0;exitDy=0;fontFamily=Times New Roman;fontSize=12;" parent="1" source="dLXo_YXkuhED8PBIhZN9-58" target="dLXo_YXkuhED8PBIhZN9-26" edge="1">
          <mxGeometry relative="1" as="geometry">
            <mxPoint x="495" y="354.97" as="sourcePoint" />
          </mxGeometry>
        </mxCell>
        <mxCell id="dLXo_YXkuhED8PBIhZN9-62" style="edgeStyle=orthogonalEdgeStyle;rounded=0;orthogonalLoop=1;jettySize=auto;html=1;fontFamily=Times New Roman;fontSize=12;entryX=0.5;entryY=0;entryDx=0;entryDy=0;exitX=0.5;exitY=1;exitDx=0;exitDy=0;" parent="1" source="dLXo_YXkuhED8PBIhZN9-28" target="dLXo_YXkuhED8PBIhZN9-58" edge="1">
          <mxGeometry relative="1" as="geometry">
            <mxPoint x="310" y="330" as="sourcePoint" />
            <mxPoint x="270" y="360" as="targetPoint" />
            <Array as="points">
              <mxPoint x="310" y="330" />
              <mxPoint x="110" y="330" />
            </Array>
          </mxGeometry>
        </mxCell>
        <mxCell id="dLXo_YXkuhED8PBIhZN9-28" value="i = i + 1" style="whiteSpace=wrap;html=1;strokeWidth=2;container=0;fontFamily=Times New Roman;fontSize=12;" parent="1" vertex="1">
          <mxGeometry x="210" y="280" width="200" height="30" as="geometry" />
        </mxCell>
        <mxCell id="dLXo_YXkuhED8PBIhZN9-51" style="edgeStyle=orthogonalEdgeStyle;rounded=0;orthogonalLoop=1;jettySize=auto;html=1;entryX=0.5;entryY=0;entryDx=0;entryDy=0;fontFamily=Times New Roman;fontSize=12;exitX=0.5;exitY=1;exitDx=0;exitDy=0;exitPerimeter=0;" parent="1" source="dLXo_YXkuhED8PBIhZN9-46" target="dLXo_YXkuhED8PBIhZN9-58" edge="1">
          <mxGeometry relative="1" as="geometry">
            <mxPoint x="180" y="360" as="targetPoint" />
            <Array as="points">
              <mxPoint x="110" y="370" />
              <mxPoint x="110" y="370" />
            </Array>
          </mxGeometry>
        </mxCell>
        <mxCell id="dLXo_YXkuhED8PBIhZN9-56" value="0" style="edgeLabel;html=1;align=center;verticalAlign=middle;resizable=0;points=[];container=0;fontFamily=Times New Roman;fontSize=12;" parent="dLXo_YXkuhED8PBIhZN9-51" vertex="1" connectable="0">
          <mxGeometry x="-0.8205" y="1" relative="1" as="geometry">
            <mxPoint x="9" as="offset" />
          </mxGeometry>
        </mxCell>
        <mxCell id="dLXo_YXkuhED8PBIhZN9-46" value="n % 2 = 0" style="strokeWidth=2;html=1;shape=mxgraph.flowchart.decision;whiteSpace=wrap;container=0;fontFamily=Times New Roman;fontSize=12;" parent="1" vertex="1">
          <mxGeometry x="10" y="230" width="200" height="60" as="geometry" />
        </mxCell>
        <mxCell id="dLXo_YXkuhED8PBIhZN9-47" style="edgeStyle=orthogonalEdgeStyle;rounded=0;orthogonalLoop=1;jettySize=auto;html=1;entryX=0.5;entryY=0;entryDx=0;entryDy=0;entryPerimeter=0;fontFamily=Times New Roman;fontSize=12;exitX=0.5;exitY=1;exitDx=0;exitDy=0;" parent="1" source="Zt94yadmZKqEdmblhapJ-2" target="dLXo_YXkuhED8PBIhZN9-46" edge="1">
          <mxGeometry relative="1" as="geometry">
            <mxPoint x="110.0344827586207" y="219.9999999999999" as="sourcePoint" />
          </mxGeometry>
        </mxCell>
        <mxCell id="dLXo_YXkuhED8PBIhZN9-54" style="edgeStyle=orthogonalEdgeStyle;rounded=0;orthogonalLoop=1;jettySize=auto;html=1;entryX=0.5;entryY=0;entryDx=0;entryDy=0;exitX=1;exitY=0.5;exitDx=0;exitDy=0;exitPerimeter=0;fontFamily=Times New Roman;fontSize=12;" parent="1" source="dLXo_YXkuhED8PBIhZN9-46" target="dLXo_YXkuhED8PBIhZN9-28" edge="1">
          <mxGeometry relative="1" as="geometry">
            <mxPoint x="230" y="259.99500000000006" as="sourcePoint" />
            <mxPoint x="380" y="290.00000000000006" as="targetPoint" />
            <Array as="points">
              <mxPoint x="310" y="260" />
            </Array>
          </mxGeometry>
        </mxCell>
        <mxCell id="dLXo_YXkuhED8PBIhZN9-55" value="1" style="edgeLabel;html=1;align=center;verticalAlign=middle;resizable=0;points=[];container=0;fontFamily=Times New Roman;fontSize=12;" parent="dLXo_YXkuhED8PBIhZN9-54" vertex="1" connectable="0">
          <mxGeometry x="-0.4225" y="2" relative="1" as="geometry">
            <mxPoint x="-28" y="-9" as="offset" />
          </mxGeometry>
        </mxCell>
        <mxCell id="dLXo_YXkuhED8PBIhZN9-64" value="" style="edgeStyle=orthogonalEdgeStyle;rounded=0;orthogonalLoop=1;jettySize=auto;html=1;fontFamily=Times New Roman;fontSize=12;entryX=0.5;entryY=1;entryDx=0;entryDy=0;" parent="1" source="dLXo_YXkuhED8PBIhZN9-58" target="Zt94yadmZKqEdmblhapJ-1" edge="1">
          <mxGeometry relative="1" as="geometry">
            <mxPoint x="110" y="440" as="targetPoint" />
            <Array as="points" />
          </mxGeometry>
        </mxCell>
        <mxCell id="dLXo_YXkuhED8PBIhZN9-58" value="n = n // 2" style="whiteSpace=wrap;html=1;strokeWidth=2;container=0;fontFamily=Times New Roman;fontSize=12;" parent="1" vertex="1">
          <mxGeometry x="10" y="350" width="200" height="30" as="geometry" />
        </mxCell>
        <mxCell id="dLXo_YXkuhED8PBIhZN9-68" value="" style="edgeStyle=orthogonalEdgeStyle;rounded=0;orthogonalLoop=1;jettySize=auto;html=1;fontFamily=Times New Roman;fontSize=12;exitX=0.5;exitY=0;exitDx=0;exitDy=0;" parent="1" source="Zt94yadmZKqEdmblhapJ-1" target="dLXo_YXkuhED8PBIhZN9-67" edge="1">
          <mxGeometry relative="1" as="geometry">
            <mxPoint x="110" y="500" as="sourcePoint" />
            <Array as="points" />
          </mxGeometry>
        </mxCell>
        <mxCell id="dLXo_YXkuhED8PBIhZN9-67" value="Вывод i" style="shape=parallelogram;perimeter=parallelogramPerimeter;whiteSpace=wrap;html=1;fixedSize=1;size=30;container=0;strokeWidth=2;fontFamily=Times New Roman;fontSize=12;" parent="1" vertex="1">
          <mxGeometry x="10" y="470" width="200" height="30" as="geometry" />
        </mxCell>
        <mxCell id="NB7hWAkcbTya_Z875Dv3-3" value="i - счетчик нулей в 2-ой записи числа" style="strokeWidth=2;html=1;shape=mxgraph.flowchart.annotation_2;align=left;labelPosition=right;pointerEvents=1;container=0;fontFamily=Times New Roman;fontSize=12;" parent="1" vertex="1">
          <mxGeometry x="257.5" y="110" width="25" height="30" as="geometry" />
        </mxCell>
        <mxCell id="NB7hWAkcbTya_Z875Dv3-4" style="edgeStyle=orthogonalEdgeStyle;rounded=0;orthogonalLoop=1;jettySize=auto;html=1;entryX=0;entryY=0.5;entryDx=0;entryDy=0;entryPerimeter=0;endArrow=none;endFill=0;dashed=1;fontFamily=Times New Roman;fontSize=12;" parent="1" source="dLXo_YXkuhED8PBIhZN9-14" target="NB7hWAkcbTya_Z875Dv3-3" edge="1">
          <mxGeometry relative="1" as="geometry" />
        </mxCell>
        <mxCell id="Zt94yadmZKqEdmblhapJ-1" value="&lt;div style=&quot;font-family: &amp;quot;Times New Roman&amp;quot;;&quot;&gt;n &amp;gt; 0&lt;/div&gt;&lt;div style=&quot;font-family: &amp;quot;Times New Roman&amp;quot;;&quot;&gt;&lt;br&gt;&lt;/div&gt;&lt;div style=&quot;font-family: &amp;quot;Times New Roman&amp;quot;;&quot;&gt;A&lt;/div&gt;" style="shape=loopLimit;whiteSpace=wrap;html=1;size=20;direction=west;strokeWidth=2;" parent="1" vertex="1">
          <mxGeometry x="10" y="400" width="200" height="50" as="geometry" />
        </mxCell>
        <mxCell id="Zt94yadmZKqEdmblhapJ-2" value="&lt;div style=&quot;font-family: &amp;quot;Times New Roman&amp;quot;;&quot;&gt;A&lt;/div&gt;&lt;div style=&quot;font-family: &amp;quot;Times New Roman&amp;quot;;&quot;&gt;&lt;br&gt;&lt;/div&gt;&lt;div style=&quot;font-family: &amp;quot;Times New Roman&amp;quot;;&quot;&gt;&lt;br&gt;&lt;/div&gt;" style="shape=loopLimit;whiteSpace=wrap;html=1;size=20;direction=east;strokeWidth=2;" parent="1" vertex="1">
          <mxGeometry x="10" y="160" width="200" height="50" as="geometry" />
        </mxCell>
      </root>
    </mxGraphModel>
  </diagram>
  <diagram id="P7D_2gxJwbOAhO8DXFET" name="Page-2">
    <mxGraphModel dx="1195" dy="697" grid="1" gridSize="10" guides="1" tooltips="1" connect="1" arrows="1" fold="1" page="1" pageScale="1" pageWidth="850" pageHeight="1100" math="0" shadow="0">
      <root>
        <mxCell id="0" />
        <mxCell id="1" parent="0" />
        <mxCell id="C9tRxBO6lWbP79YNT3hR-2" value="" style="edgeStyle=orthogonalEdgeStyle;rounded=0;orthogonalLoop=1;jettySize=auto;html=1;fontFamily=Times New Roman;fontSize=12;" parent="1" source="9IJ4cXLMDesKtCE9tEZo-1" target="C9tRxBO6lWbP79YNT3hR-1" edge="1">
          <mxGeometry relative="1" as="geometry" />
        </mxCell>
        <mxCell id="9IJ4cXLMDesKtCE9tEZo-1" value="Начало" style="rounded=1;whiteSpace=wrap;html=1;arcSize=50;container=0;strokeWidth=2;fontFamily=Times New Roman;" parent="1" vertex="1">
          <mxGeometry x="15" y="10" width="200" height="30" as="geometry" />
        </mxCell>
        <mxCell id="9mbiiGn999nHnNBtGfMG-1" value="Конец" style="rounded=1;whiteSpace=wrap;html=1;arcSize=50;container=0;strokeWidth=2;fontFamily=Times New Roman;" parent="1" vertex="1">
          <mxGeometry x="15" y="550" width="200" height="30" as="geometry" />
        </mxCell>
        <mxCell id="9_Tv-KTaiM3mRvpoTxgJ-2" value="" style="edgeStyle=orthogonalEdgeStyle;rounded=0;orthogonalLoop=1;jettySize=auto;html=1;fontFamily=Times New Roman;fontSize=12;" parent="1" source="C9tRxBO6lWbP79YNT3hR-1" target="9_Tv-KTaiM3mRvpoTxgJ-1" edge="1">
          <mxGeometry relative="1" as="geometry" />
        </mxCell>
        <mxCell id="C9tRxBO6lWbP79YNT3hR-1" value="Ввод n, i" style="shape=parallelogram;perimeter=parallelogramPerimeter;whiteSpace=wrap;html=1;fixedSize=1;size=30;container=0;strokeWidth=2;fontFamily=Times New Roman;fontSize=12;" parent="1" vertex="1">
          <mxGeometry x="15" y="60" width="200" height="30" as="geometry" />
        </mxCell>
        <mxCell id="yXNdajn6jbAlEUVEPiN4-1" value="n -&amp;nbsp;&lt;span style=&quot;background-color: initial; font-size: 12px;&quot;&gt;целое&amp;nbsp;&lt;/span&gt;&lt;span style=&quot;background-color: initial; font-size: 12px;&quot;&gt;неотрицательное число,&lt;br style=&quot;font-size: 12px;&quot;&gt;i - индекс бита в 2-ой записи числа n&amp;nbsp;&lt;/span&gt;" style="strokeWidth=2;html=1;shape=mxgraph.flowchart.annotation_2;align=left;labelPosition=right;pointerEvents=1;container=0;fontFamily=Times New Roman;fontSize=12;" parent="1" vertex="1">
          <mxGeometry x="242.5" y="60" width="25" height="30" as="geometry" />
        </mxCell>
        <mxCell id="yXNdajn6jbAlEUVEPiN4-2" style="edgeStyle=orthogonalEdgeStyle;rounded=0;orthogonalLoop=1;jettySize=auto;html=1;entryX=0;entryY=0.5;entryDx=0;entryDy=0;entryPerimeter=0;endArrow=none;endFill=0;dashed=1;fontFamily=Times New Roman;fontSize=12;" parent="1" source="C9tRxBO6lWbP79YNT3hR-1" target="yXNdajn6jbAlEUVEPiN4-1" edge="1">
          <mxGeometry relative="1" as="geometry" />
        </mxCell>
        <mxCell id="y_Ljse67z5G5bVPzCOwz-10" value="" style="edgeStyle=orthogonalEdgeStyle;rounded=0;orthogonalLoop=1;jettySize=auto;html=1;" parent="1" source="9_Tv-KTaiM3mRvpoTxgJ-1" target="y_Ljse67z5G5bVPzCOwz-9" edge="1">
          <mxGeometry relative="1" as="geometry" />
        </mxCell>
        <mxCell id="9_Tv-KTaiM3mRvpoTxgJ-1" value="i = 0" style="whiteSpace=wrap;html=1;container=0;strokeWidth=2;fontFamily=Times New Roman;fontSize=12;" parent="1" vertex="1">
          <mxGeometry x="15" y="110" width="200" height="30" as="geometry" />
        </mxCell>
        <mxCell id="9_Tv-KTaiM3mRvpoTxgJ-7" value="" style="edgeStyle=orthogonalEdgeStyle;rounded=0;orthogonalLoop=1;jettySize=auto;html=1;" parent="1" source="9_Tv-KTaiM3mRvpoTxgJ-4" target="9_Tv-KTaiM3mRvpoTxgJ-6" edge="1">
          <mxGeometry relative="1" as="geometry" />
        </mxCell>
        <mxCell id="9_Tv-KTaiM3mRvpoTxgJ-4" value="binrev[j] = n % 2" style="whiteSpace=wrap;html=1;fontFamily=Times New Roman;strokeWidth=2;" parent="1" vertex="1">
          <mxGeometry x="15" y="230" width="200" height="30" as="geometry" />
        </mxCell>
        <mxCell id="9_Tv-KTaiM3mRvpoTxgJ-9" value="" style="edgeStyle=orthogonalEdgeStyle;rounded=0;orthogonalLoop=1;jettySize=auto;html=1;" parent="1" source="9_Tv-KTaiM3mRvpoTxgJ-6" edge="1">
          <mxGeometry relative="1" as="geometry">
            <mxPoint x="114.99999999999989" y="340" as="targetPoint" />
          </mxGeometry>
        </mxCell>
        <mxCell id="9_Tv-KTaiM3mRvpoTxgJ-6" value="j = j + 1" style="whiteSpace=wrap;html=1;fontFamily=Times New Roman;strokeWidth=2;" parent="1" vertex="1">
          <mxGeometry x="15" y="280" width="200" height="30" as="geometry" />
        </mxCell>
        <mxCell id="y_Ljse67z5G5bVPzCOwz-3" style="edgeStyle=orthogonalEdgeStyle;rounded=0;orthogonalLoop=1;jettySize=auto;html=1;entryX=0.5;entryY=0;entryDx=0;entryDy=0;exitX=0.982;exitY=0.498;exitDx=0;exitDy=0;exitPerimeter=0;" parent="1" source="FlLvTlkGFve9_6DHaRqp-1" target="y_Ljse67z5G5bVPzCOwz-2" edge="1">
          <mxGeometry relative="1" as="geometry">
            <Array as="points">
              <mxPoint x="225" y="430" />
              <mxPoint x="335" y="430" />
            </Array>
          </mxGeometry>
        </mxCell>
        <mxCell id="y_Ljse67z5G5bVPzCOwz-4" value="1" style="edgeLabel;html=1;align=center;verticalAlign=middle;resizable=0;points=[];" parent="y_Ljse67z5G5bVPzCOwz-3" vertex="1" connectable="0">
          <mxGeometry x="-0.7582" y="1" relative="1" as="geometry">
            <mxPoint x="-10" y="-10" as="offset" />
          </mxGeometry>
        </mxCell>
        <mxCell id="y_Ljse67z5G5bVPzCOwz-6" value="" style="edgeStyle=orthogonalEdgeStyle;rounded=0;orthogonalLoop=1;jettySize=auto;html=1;" parent="1" source="FlLvTlkGFve9_6DHaRqp-1" target="y_Ljse67z5G5bVPzCOwz-5" edge="1">
          <mxGeometry relative="1" as="geometry" />
        </mxCell>
        <mxCell id="y_Ljse67z5G5bVPzCOwz-13" value="0" style="edgeLabel;html=1;align=center;verticalAlign=middle;resizable=0;points=[];fontFamily=Times New Roman;" parent="y_Ljse67z5G5bVPzCOwz-6" vertex="1" connectable="0">
          <mxGeometry x="0.1876" y="1" relative="1" as="geometry">
            <mxPoint x="11" y="6" as="offset" />
          </mxGeometry>
        </mxCell>
        <mxCell id="FlLvTlkGFve9_6DHaRqp-1" value="i &amp;lt; 0 или i &amp;gt;= j" style="strokeWidth=2;html=1;shape=mxgraph.flowchart.decision;whiteSpace=wrap;container=0;fontFamily=Times New Roman;fontSize=12;" parent="1" vertex="1">
          <mxGeometry x="15" y="400" width="200" height="60" as="geometry" />
        </mxCell>
        <mxCell id="y_Ljse67z5G5bVPzCOwz-14" style="edgeStyle=orthogonalEdgeStyle;rounded=0;orthogonalLoop=1;jettySize=auto;html=1;entryX=0.5;entryY=0;entryDx=0;entryDy=0;" parent="1" source="y_Ljse67z5G5bVPzCOwz-2" target="9mbiiGn999nHnNBtGfMG-1" edge="1">
          <mxGeometry relative="1" as="geometry">
            <Array as="points">
              <mxPoint x="325" y="530" />
              <mxPoint x="115" y="530" />
            </Array>
          </mxGeometry>
        </mxCell>
        <mxCell id="y_Ljse67z5G5bVPzCOwz-2" value="Вывод binrev[i]" style="shape=parallelogram;perimeter=parallelogramPerimeter;whiteSpace=wrap;html=1;fixedSize=1;size=30;container=0;strokeWidth=2;fontFamily=Times New Roman;fontSize=12;" parent="1" vertex="1">
          <mxGeometry x="225" y="480" width="200" height="30" as="geometry" />
        </mxCell>
        <mxCell id="y_Ljse67z5G5bVPzCOwz-15" style="edgeStyle=orthogonalEdgeStyle;rounded=0;orthogonalLoop=1;jettySize=auto;html=1;" parent="1" source="y_Ljse67z5G5bVPzCOwz-5" edge="1">
          <mxGeometry relative="1" as="geometry">
            <mxPoint x="115" y="550" as="targetPoint" />
          </mxGeometry>
        </mxCell>
        <mxCell id="y_Ljse67z5G5bVPzCOwz-5" value="Вывод с ошибкой" style="shape=parallelogram;perimeter=parallelogramPerimeter;whiteSpace=wrap;html=1;fixedSize=1;size=30;container=0;strokeWidth=2;fontFamily=Times New Roman;fontSize=12;" parent="1" vertex="1">
          <mxGeometry x="15" y="480" width="200" height="30" as="geometry" />
        </mxCell>
        <mxCell id="y_Ljse67z5G5bVPzCOwz-8" value="" style="edgeStyle=orthogonalEdgeStyle;rounded=0;orthogonalLoop=1;jettySize=auto;html=1;" parent="1" source="y_Ljse67z5G5bVPzCOwz-7" target="FlLvTlkGFve9_6DHaRqp-1" edge="1">
          <mxGeometry relative="1" as="geometry" />
        </mxCell>
        <mxCell id="y_Ljse67z5G5bVPzCOwz-7" value="&lt;div style=&quot;font-family: &amp;quot;Times New Roman&amp;quot;;&quot;&gt;n &amp;gt; 0&lt;/div&gt;&lt;div style=&quot;font-family: &amp;quot;Times New Roman&amp;quot;;&quot;&gt;&lt;br&gt;&lt;/div&gt;&lt;div style=&quot;font-family: &amp;quot;Times New Roman&amp;quot;;&quot;&gt;A&lt;/div&gt;" style="shape=loopLimit;whiteSpace=wrap;html=1;size=20;direction=west;strokeWidth=2;" parent="1" vertex="1">
          <mxGeometry x="15" y="330" width="200" height="50" as="geometry" />
        </mxCell>
        <mxCell id="y_Ljse67z5G5bVPzCOwz-12" style="edgeStyle=orthogonalEdgeStyle;rounded=0;orthogonalLoop=1;jettySize=auto;html=1;entryX=0.5;entryY=0;entryDx=0;entryDy=0;" parent="1" source="y_Ljse67z5G5bVPzCOwz-9" target="9_Tv-KTaiM3mRvpoTxgJ-4" edge="1">
          <mxGeometry relative="1" as="geometry" />
        </mxCell>
        <mxCell id="y_Ljse67z5G5bVPzCOwz-9" value="&lt;div style=&quot;font-family: &amp;quot;Times New Roman&amp;quot;;&quot;&gt;A&lt;/div&gt;&lt;div style=&quot;font-family: &amp;quot;Times New Roman&amp;quot;;&quot;&gt;&lt;br&gt;&lt;/div&gt;&lt;div style=&quot;font-family: &amp;quot;Times New Roman&amp;quot;;&quot;&gt;&lt;br&gt;&lt;/div&gt;" style="shape=loopLimit;whiteSpace=wrap;html=1;size=20;direction=east;strokeWidth=2;" parent="1" vertex="1">
          <mxGeometry x="15" y="160" width="200" height="50" as="geometry" />
        </mxCell>
        <mxCell id="Qi0PkULw82pP82SRmxnN-1" value="binrev - массив" style="strokeWidth=2;html=1;shape=mxgraph.flowchart.annotation_2;align=left;labelPosition=right;pointerEvents=1;container=0;fontFamily=Times New Roman;fontSize=12;" parent="1" vertex="1">
          <mxGeometry x="252.5" y="230" width="25" height="30" as="geometry" />
        </mxCell>
        <mxCell id="Qi0PkULw82pP82SRmxnN-2" style="edgeStyle=orthogonalEdgeStyle;rounded=0;orthogonalLoop=1;jettySize=auto;html=1;entryX=0;entryY=0.5;entryDx=0;entryDy=0;entryPerimeter=0;endArrow=none;endFill=0;dashed=1;" parent="1" source="9_Tv-KTaiM3mRvpoTxgJ-4" target="Qi0PkULw82pP82SRmxnN-1" edge="1">
          <mxGeometry relative="1" as="geometry" />
        </mxCell>
      </root>
    </mxGraphModel>
  </diagram>
  <diagram id="p_tx4ZzzhZkMMfNmCMNF" name="Page-3">
    <mxGraphModel dx="2868" dy="1672" grid="1" gridSize="10" guides="1" tooltips="1" connect="1" arrows="1" fold="1" page="1" pageScale="1" pageWidth="827" pageHeight="1169" math="0" shadow="0">
      <root>
        <mxCell id="0" />
        <mxCell id="1" parent="0" />
        <mxCell id="MsXIucuG90J7ZM-M7yxq-1" value="Конец&lt;div&gt;convertIntToBase&lt;/div&gt;" style="rounded=1;whiteSpace=wrap;html=1;arcSize=50;container=0;strokeWidth=2;fontFamily=Times New Roman;fontSize=12;" parent="1" vertex="1">
          <mxGeometry x="1220" y="430" width="200" height="30" as="geometry" />
        </mxCell>
        <mxCell id="uvt-T8jl0Z_bt3rAxGOF-1" style="edgeStyle=orthogonalEdgeStyle;rounded=0;orthogonalLoop=1;jettySize=auto;html=1;exitX=0.5;exitY=1;exitDx=0;exitDy=0;entryX=0.5;entryY=0;entryDx=0;entryDy=0;fontFamily=Times New Roman;" edge="1" parent="1" source="MsXIucuG90J7ZM-M7yxq-2" target="p7VAM63taGiz_uKIpcSu-1">
          <mxGeometry relative="1" as="geometry" />
        </mxCell>
        <mxCell id="MsXIucuG90J7ZM-M7yxq-2" value="Начало" style="rounded=1;whiteSpace=wrap;html=1;arcSize=50;container=0;strokeWidth=2;fontFamily=Times New Roman;fontSize=12;" parent="1" vertex="1">
          <mxGeometry x="20" y="20" width="200" height="30" as="geometry" />
        </mxCell>
        <mxCell id="uvt-T8jl0Z_bt3rAxGOF-11" style="edgeStyle=orthogonalEdgeStyle;rounded=0;orthogonalLoop=1;jettySize=auto;html=1;exitX=0.5;exitY=1;exitDx=0;exitDy=0;entryX=0.5;entryY=0;entryDx=0;entryDy=0;fontFamily=Times New Roman;" edge="1" parent="1" source="MsXIucuG90J7ZM-M7yxq-4" target="uvt-T8jl0Z_bt3rAxGOF-10">
          <mxGeometry relative="1" as="geometry" />
        </mxCell>
        <mxCell id="MsXIucuG90J7ZM-M7yxq-4" value="Начало&lt;br&gt;convertIntToDec" style="rounded=1;whiteSpace=wrap;html=1;arcSize=50;container=0;strokeWidth=2;fontFamily=Times New Roman;fontSize=12;" parent="1" vertex="1">
          <mxGeometry x="470" y="10" width="200" height="30" as="geometry" />
        </mxCell>
        <mxCell id="MsXIucuG90J7ZM-M7yxq-5" value="Конец&lt;br&gt;convertFracToDec" style="rounded=1;whiteSpace=wrap;html=1;arcSize=50;container=0;strokeWidth=2;fontFamily=Times New Roman;fontSize=12;" parent="1" vertex="1">
          <mxGeometry x="470" y="960" width="200" height="30" as="geometry" />
        </mxCell>
        <mxCell id="T34eMwIwh6sYFuAVk1EG-34" style="edgeStyle=orthogonalEdgeStyle;rounded=0;orthogonalLoop=1;jettySize=auto;html=1;exitX=0.5;exitY=1;exitDx=0;exitDy=0;entryX=0.5;entryY=0;entryDx=0;entryDy=0;" edge="1" parent="1" source="MsXIucuG90J7ZM-M7yxq-6" target="T34eMwIwh6sYFuAVk1EG-33">
          <mxGeometry relative="1" as="geometry" />
        </mxCell>
        <mxCell id="MsXIucuG90J7ZM-M7yxq-6" value="Начало&lt;div&gt;convertFracToDec&lt;/div&gt;" style="rounded=1;whiteSpace=wrap;html=1;arcSize=50;container=0;strokeWidth=2;fontFamily=Times New Roman;fontSize=12;" parent="1" vertex="1">
          <mxGeometry x="470" y="510" width="200" height="30" as="geometry" />
        </mxCell>
        <mxCell id="T34eMwIwh6sYFuAVk1EG-51" style="edgeStyle=orthogonalEdgeStyle;rounded=0;orthogonalLoop=1;jettySize=auto;html=1;exitX=0.5;exitY=1;exitDx=0;exitDy=0;entryX=0.5;entryY=0;entryDx=0;entryDy=0;" edge="1" parent="1" source="MsXIucuG90J7ZM-M7yxq-8" target="T34eMwIwh6sYFuAVk1EG-50">
          <mxGeometry relative="1" as="geometry" />
        </mxCell>
        <mxCell id="MsXIucuG90J7ZM-M7yxq-8" value="Начало&lt;div&gt;convertIntToBase&lt;/div&gt;" style="rounded=1;whiteSpace=wrap;html=1;arcSize=50;container=0;strokeWidth=2;fontFamily=Times New Roman;fontSize=12;" parent="1" vertex="1">
          <mxGeometry x="840" y="10" width="200" height="30" as="geometry" />
        </mxCell>
        <mxCell id="T34eMwIwh6sYFuAVk1EG-2" style="edgeStyle=orthogonalEdgeStyle;rounded=0;orthogonalLoop=1;jettySize=auto;html=1;exitX=0.5;exitY=1;exitDx=0;exitDy=0;entryX=0.5;entryY=0;entryDx=0;entryDy=0;fontFamily=Times New Roman;" edge="1" parent="1" source="p7VAM63taGiz_uKIpcSu-1" target="T34eMwIwh6sYFuAVk1EG-1">
          <mxGeometry relative="1" as="geometry" />
        </mxCell>
        <mxCell id="p7VAM63taGiz_uKIpcSu-1" value="Ввод x, k, m" style="shape=parallelogram;perimeter=parallelogramPerimeter;whiteSpace=wrap;html=1;fixedSize=1;size=30;container=0;strokeWidth=2;fontFamily=Times New Roman;fontSize=12;" vertex="1" parent="1">
          <mxGeometry x="20" y="70" width="200" height="30" as="geometry" />
        </mxCell>
        <mxCell id="uvt-T8jl0Z_bt3rAxGOF-2" value="x - входное число в виде строки,&lt;br&gt;k - система счисления числа x,&lt;br&gt;m - система счисления выходного числа." style="strokeWidth=2;html=1;shape=mxgraph.flowchart.annotation_2;align=left;labelPosition=right;pointerEvents=1;container=0;fontFamily=Times New Roman;fontSize=12;" vertex="1" parent="1">
          <mxGeometry x="240" y="60" width="20" height="50" as="geometry" />
        </mxCell>
        <mxCell id="uvt-T8jl0Z_bt3rAxGOF-3" style="edgeStyle=orthogonalEdgeStyle;rounded=0;orthogonalLoop=1;jettySize=auto;html=1;entryX=0;entryY=0.5;entryDx=0;entryDy=0;entryPerimeter=0;endArrow=none;endFill=0;dashed=1;fontFamily=Times New Roman;fontSize=12;exitX=1;exitY=0.5;exitDx=0;exitDy=0;" edge="1" target="uvt-T8jl0Z_bt3rAxGOF-2" parent="1" source="p7VAM63taGiz_uKIpcSu-1">
          <mxGeometry relative="1" as="geometry">
            <mxPoint x="230" y="85" as="sourcePoint" />
          </mxGeometry>
        </mxCell>
        <mxCell id="uvt-T8jl0Z_bt3rAxGOF-9" style="edgeStyle=orthogonalEdgeStyle;rounded=0;orthogonalLoop=1;jettySize=auto;html=1;exitX=0.5;exitY=1;exitDx=0;exitDy=0;entryX=0.5;entryY=0;entryDx=0;entryDy=0;fontFamily=Times New Roman;" edge="1" parent="1" source="uvt-T8jl0Z_bt3rAxGOF-4" target="uvt-T8jl0Z_bt3rAxGOF-8">
          <mxGeometry relative="1" as="geometry" />
        </mxCell>
        <mxCell id="uvt-T8jl0Z_bt3rAxGOF-4" value="intPart = int(x)&lt;br&gt;fracPart = frac(x)" style="rounded=0;whiteSpace=wrap;html=1;strokeWidth=2;fontFamily=Times New Roman;" vertex="1" parent="1">
          <mxGeometry x="20" y="260" width="200" height="40" as="geometry" />
        </mxCell>
        <mxCell id="uvt-T8jl0Z_bt3rAxGOF-5" value="int() - целая часть числа до &quot;.&quot;,&lt;br&gt;frac() - дробная часть после &quot;.&quot;." style="strokeWidth=2;html=1;shape=mxgraph.flowchart.annotation_2;align=left;labelPosition=right;pointerEvents=1;container=0;fontFamily=Times New Roman;fontSize=12;" vertex="1" parent="1">
          <mxGeometry x="240" y="260" width="20" height="40" as="geometry" />
        </mxCell>
        <mxCell id="uvt-T8jl0Z_bt3rAxGOF-6" style="edgeStyle=orthogonalEdgeStyle;rounded=0;orthogonalLoop=1;jettySize=auto;html=1;entryX=0;entryY=0.5;entryDx=0;entryDy=0;entryPerimeter=0;endArrow=none;endFill=0;dashed=1;fontFamily=Times New Roman;fontSize=12;exitX=1;exitY=0.5;exitDx=0;exitDy=0;" edge="1" target="uvt-T8jl0Z_bt3rAxGOF-5" parent="1" source="uvt-T8jl0Z_bt3rAxGOF-4">
          <mxGeometry relative="1" as="geometry">
            <mxPoint x="220" y="280" as="sourcePoint" />
          </mxGeometry>
        </mxCell>
        <mxCell id="T34eMwIwh6sYFuAVk1EG-20" style="edgeStyle=orthogonalEdgeStyle;rounded=0;orthogonalLoop=1;jettySize=auto;html=1;exitX=0.5;exitY=1;exitDx=0;exitDy=0;entryX=0.5;entryY=0;entryDx=0;entryDy=0;" edge="1" parent="1" source="uvt-T8jl0Z_bt3rAxGOF-8" target="T34eMwIwh6sYFuAVk1EG-19">
          <mxGeometry relative="1" as="geometry" />
        </mxCell>
        <mxCell id="uvt-T8jl0Z_bt3rAxGOF-8" value="&lt;font&gt;intDec =&lt;/font&gt;&lt;div&gt;&lt;font&gt;convertIntToDec(intPart, k)&lt;/font&gt;&lt;/div&gt;" style="shape=process;whiteSpace=wrap;html=1;backgroundOutline=1;strokeWidth=2;size=0.05;fontFamily=Times New Roman;" vertex="1" parent="1">
          <mxGeometry x="20" y="320" width="200" height="30" as="geometry" />
        </mxCell>
        <mxCell id="uvt-T8jl0Z_bt3rAxGOF-15" style="edgeStyle=orthogonalEdgeStyle;rounded=0;orthogonalLoop=1;jettySize=auto;html=1;exitX=0.5;exitY=1;exitDx=0;exitDy=0;entryX=0.5;entryY=0;entryDx=0;entryDy=0;fontFamily=Times New Roman;" edge="1" parent="1" source="uvt-T8jl0Z_bt3rAxGOF-10" target="uvt-T8jl0Z_bt3rAxGOF-14">
          <mxGeometry relative="1" as="geometry" />
        </mxCell>
        <mxCell id="uvt-T8jl0Z_bt3rAxGOF-10" value="Ввод intPart, base" style="shape=parallelogram;perimeter=parallelogramPerimeter;whiteSpace=wrap;html=1;fixedSize=1;size=30;container=0;strokeWidth=2;fontFamily=Times New Roman;fontSize=12;" vertex="1" parent="1">
          <mxGeometry x="470" y="60" width="200" height="30" as="geometry" />
        </mxCell>
        <mxCell id="uvt-T8jl0Z_bt3rAxGOF-12" value="intPart - по ссылке,&lt;br&gt;base - по значению." style="strokeWidth=2;html=1;shape=mxgraph.flowchart.annotation_2;align=left;labelPosition=right;pointerEvents=1;container=0;fontFamily=Times New Roman;fontSize=12;" vertex="1" parent="1">
          <mxGeometry x="690" y="55" width="25" height="40" as="geometry" />
        </mxCell>
        <mxCell id="uvt-T8jl0Z_bt3rAxGOF-13" style="edgeStyle=orthogonalEdgeStyle;rounded=0;orthogonalLoop=1;jettySize=auto;html=1;entryX=0;entryY=0.5;entryDx=0;entryDy=0;entryPerimeter=0;endArrow=none;endFill=0;dashed=1;fontFamily=Times New Roman;fontSize=12;exitX=1;exitY=0.5;exitDx=0;exitDy=0;" edge="1" target="uvt-T8jl0Z_bt3rAxGOF-12" parent="1" source="uvt-T8jl0Z_bt3rAxGOF-10">
          <mxGeometry relative="1" as="geometry">
            <mxPoint x="680" y="75" as="sourcePoint" />
          </mxGeometry>
        </mxCell>
        <mxCell id="uvt-T8jl0Z_bt3rAxGOF-21" style="edgeStyle=orthogonalEdgeStyle;rounded=0;orthogonalLoop=1;jettySize=auto;html=1;exitX=0.5;exitY=1;exitDx=0;exitDy=0;entryX=0.5;entryY=0;entryDx=0;entryDy=0;fontFamily=Times New Roman;" edge="1" parent="1" source="uvt-T8jl0Z_bt3rAxGOF-14" target="uvt-T8jl0Z_bt3rAxGOF-20">
          <mxGeometry relative="1" as="geometry" />
        </mxCell>
        <mxCell id="uvt-T8jl0Z_bt3rAxGOF-14" value="decimalVal = 0&lt;div&gt;i = 0&lt;/div&gt;" style="rounded=0;whiteSpace=wrap;html=1;strokeWidth=2;fontFamily=Times New Roman;" vertex="1" parent="1">
          <mxGeometry x="470" y="110" width="200" height="40" as="geometry" />
        </mxCell>
        <mxCell id="T34eMwIwh6sYFuAVk1EG-15" style="edgeStyle=orthogonalEdgeStyle;rounded=0;orthogonalLoop=1;jettySize=auto;html=1;exitX=0.5;exitY=0;exitDx=0;exitDy=0;entryX=0.5;entryY=0;entryDx=0;entryDy=0;" edge="1" parent="1" source="uvt-T8jl0Z_bt3rAxGOF-19" target="T34eMwIwh6sYFuAVk1EG-14">
          <mxGeometry relative="1" as="geometry" />
        </mxCell>
        <mxCell id="uvt-T8jl0Z_bt3rAxGOF-19" value="&lt;div style=&quot;&quot;&gt;&lt;br&gt;&lt;/div&gt;&lt;div style=&quot;&quot;&gt;A&lt;/div&gt;" style="shape=loopLimit;whiteSpace=wrap;html=1;size=20;direction=west;strokeWidth=2;fontFamily=Times New Roman;" vertex="1" parent="1">
          <mxGeometry x="470" y="340" width="200" height="40" as="geometry" />
        </mxCell>
        <mxCell id="T34eMwIwh6sYFuAVk1EG-11" style="edgeStyle=orthogonalEdgeStyle;rounded=0;orthogonalLoop=1;jettySize=auto;html=1;exitX=0.5;exitY=1;exitDx=0;exitDy=0;entryX=0.5;entryY=0;entryDx=0;entryDy=0;" edge="1" parent="1" source="uvt-T8jl0Z_bt3rAxGOF-20" target="T34eMwIwh6sYFuAVk1EG-10">
          <mxGeometry relative="1" as="geometry" />
        </mxCell>
        <mxCell id="uvt-T8jl0Z_bt3rAxGOF-20" value="&lt;div style=&quot;&quot;&gt;&lt;font&gt;A&lt;/font&gt;&lt;/div&gt;&lt;div style=&quot;&quot;&gt;&lt;font&gt;i&amp;nbsp;&lt;span style=&quot;color: rgb(205, 214, 244); text-align: start; text-wrap: nowrap; background-color: initial;&quot;&gt;&lt;font style=&quot;font-size: 12px;&quot;&gt;≤&lt;/font&gt;&lt;/span&gt;&lt;span style=&quot;background-color: initial;&quot;&gt;&amp;nbsp;len(intPart[i])&lt;/span&gt;&lt;/font&gt;&lt;/div&gt;" style="shape=loopLimit;whiteSpace=wrap;html=1;size=20;direction=east;strokeWidth=2;fontFamily=Times New Roman;" vertex="1" parent="1">
          <mxGeometry x="470" y="170" width="200" height="40" as="geometry" />
        </mxCell>
        <mxCell id="T34eMwIwh6sYFuAVk1EG-3" style="edgeStyle=orthogonalEdgeStyle;rounded=0;orthogonalLoop=1;jettySize=auto;html=1;exitX=0.5;exitY=1;exitDx=0;exitDy=0;entryX=0.5;entryY=0;entryDx=0;entryDy=0;fontFamily=Times New Roman;" edge="1" parent="1" source="T34eMwIwh6sYFuAVk1EG-1" target="uvt-T8jl0Z_bt3rAxGOF-4">
          <mxGeometry relative="1" as="geometry" />
        </mxCell>
        <mxCell id="T34eMwIwh6sYFuAVk1EG-21" value="1" style="edgeLabel;html=1;align=center;verticalAlign=middle;resizable=0;points=[];" vertex="1" connectable="0" parent="T34eMwIwh6sYFuAVk1EG-3">
          <mxGeometry x="-0.2583" y="2" relative="1" as="geometry">
            <mxPoint x="8" y="-20" as="offset" />
          </mxGeometry>
        </mxCell>
        <mxCell id="T34eMwIwh6sYFuAVk1EG-5" style="edgeStyle=orthogonalEdgeStyle;rounded=0;orthogonalLoop=1;jettySize=auto;html=1;exitX=1;exitY=0.5;exitDx=0;exitDy=0;entryX=0.5;entryY=0;entryDx=0;entryDy=0;fontFamily=Times New Roman;" edge="1" parent="1" source="T34eMwIwh6sYFuAVk1EG-1" target="T34eMwIwh6sYFuAVk1EG-4">
          <mxGeometry relative="1" as="geometry" />
        </mxCell>
        <mxCell id="T34eMwIwh6sYFuAVk1EG-22" value="0" style="edgeLabel;html=1;align=center;verticalAlign=middle;resizable=0;points=[];" vertex="1" connectable="0" parent="T34eMwIwh6sYFuAVk1EG-5">
          <mxGeometry x="-0.6667" y="-1" relative="1" as="geometry">
            <mxPoint x="-23" y="-11" as="offset" />
          </mxGeometry>
        </mxCell>
        <mxCell id="T34eMwIwh6sYFuAVk1EG-1" value="k &amp;lt; 10 или m &amp;lt; 10 или&lt;div&gt;k &amp;gt; 2 или m &amp;gt; 2&lt;/div&gt;" style="rhombus;whiteSpace=wrap;html=1;strokeWidth=2;fontFamily=Times New Roman;" vertex="1" parent="1">
          <mxGeometry x="20" y="120" width="200" height="60" as="geometry" />
        </mxCell>
        <mxCell id="T34eMwIwh6sYFuAVk1EG-7" style="edgeStyle=orthogonalEdgeStyle;rounded=0;orthogonalLoop=1;jettySize=auto;html=1;exitX=0.5;exitY=1;exitDx=0;exitDy=0;entryX=0.5;entryY=0;entryDx=0;entryDy=0;fontFamily=Times New Roman;" edge="1" parent="1" source="T34eMwIwh6sYFuAVk1EG-4" target="T34eMwIwh6sYFuAVk1EG-6">
          <mxGeometry relative="1" as="geometry" />
        </mxCell>
        <mxCell id="T34eMwIwh6sYFuAVk1EG-4" value="Вывод&amp;nbsp; ошибка" style="shape=parallelogram;perimeter=parallelogramPerimeter;whiteSpace=wrap;html=1;fixedSize=1;size=30;container=0;strokeWidth=2;fontFamily=Times New Roman;fontSize=12;" vertex="1" parent="1">
          <mxGeometry x="240" y="170" width="200" height="30" as="geometry" />
        </mxCell>
        <mxCell id="T34eMwIwh6sYFuAVk1EG-6" value="&lt;font&gt;A1&lt;/font&gt;" style="ellipse;whiteSpace=wrap;html=1;aspect=fixed;strokeWidth=2;fontFamily=Times New Roman;" vertex="1" parent="1">
          <mxGeometry x="325" y="220" width="30" height="30" as="geometry" />
        </mxCell>
        <mxCell id="T34eMwIwh6sYFuAVk1EG-9" style="edgeStyle=orthogonalEdgeStyle;rounded=0;orthogonalLoop=1;jettySize=auto;html=1;exitX=0.5;exitY=1;exitDx=0;exitDy=0;entryX=0.5;entryY=1;entryDx=0;entryDy=0;" edge="1" parent="1" source="T34eMwIwh6sYFuAVk1EG-8" target="uvt-T8jl0Z_bt3rAxGOF-19">
          <mxGeometry relative="1" as="geometry" />
        </mxCell>
        <mxCell id="T34eMwIwh6sYFuAVk1EG-8" value="i = i + 1" style="rounded=0;whiteSpace=wrap;html=1;strokeWidth=2;fontFamily=Times New Roman;" vertex="1" parent="1">
          <mxGeometry x="470" y="290" width="200" height="30" as="geometry" />
        </mxCell>
        <mxCell id="T34eMwIwh6sYFuAVk1EG-12" style="edgeStyle=orthogonalEdgeStyle;rounded=0;orthogonalLoop=1;jettySize=auto;html=1;exitX=0.5;exitY=1;exitDx=0;exitDy=0;entryX=0.5;entryY=0;entryDx=0;entryDy=0;" edge="1" parent="1" source="T34eMwIwh6sYFuAVk1EG-10" target="T34eMwIwh6sYFuAVk1EG-8">
          <mxGeometry relative="1" as="geometry" />
        </mxCell>
        <mxCell id="T34eMwIwh6sYFuAVk1EG-10" value="decimalVal = decimalVal * base + (intPart[i] - &#39;0&#39;)" style="rounded=0;whiteSpace=wrap;html=1;strokeWidth=2;fontFamily=Times New Roman;" vertex="1" parent="1">
          <mxGeometry x="470" y="230" width="200" height="40" as="geometry" />
        </mxCell>
        <mxCell id="T34eMwIwh6sYFuAVk1EG-13" value="Конец&lt;div&gt;convertToDec&lt;/div&gt;" style="rounded=1;whiteSpace=wrap;html=1;arcSize=50;container=0;strokeWidth=2;fontFamily=Times New Roman;fontSize=12;" vertex="1" parent="1">
          <mxGeometry x="470" y="450" width="200" height="30" as="geometry" />
        </mxCell>
        <mxCell id="T34eMwIwh6sYFuAVk1EG-16" style="edgeStyle=orthogonalEdgeStyle;rounded=0;orthogonalLoop=1;jettySize=auto;html=1;exitX=0.5;exitY=1;exitDx=0;exitDy=0;entryX=0.5;entryY=0;entryDx=0;entryDy=0;" edge="1" parent="1" source="T34eMwIwh6sYFuAVk1EG-14" target="T34eMwIwh6sYFuAVk1EG-13">
          <mxGeometry relative="1" as="geometry" />
        </mxCell>
        <mxCell id="T34eMwIwh6sYFuAVk1EG-14" value="Вывод decimalVal" style="shape=parallelogram;perimeter=parallelogramPerimeter;whiteSpace=wrap;html=1;fixedSize=1;size=30;container=0;strokeWidth=2;fontFamily=Times New Roman;fontSize=12;" vertex="1" parent="1">
          <mxGeometry x="470" y="400" width="200" height="30" as="geometry" />
        </mxCell>
        <mxCell id="T34eMwIwh6sYFuAVk1EG-17" value="символ &#39;0&#39; = 48,&lt;div&gt;&#39;1&#39; = 49, &#39;4&#39; = 52&lt;br&gt;в ASCII.&lt;/div&gt;" style="strokeWidth=2;html=1;shape=mxgraph.flowchart.annotation_2;align=left;labelPosition=right;pointerEvents=1;container=0;fontFamily=Times New Roman;fontSize=12;" vertex="1" parent="1">
          <mxGeometry x="690" y="225" width="25" height="50" as="geometry" />
        </mxCell>
        <mxCell id="T34eMwIwh6sYFuAVk1EG-18" style="edgeStyle=orthogonalEdgeStyle;rounded=0;orthogonalLoop=1;jettySize=auto;html=1;entryX=0;entryY=0.5;entryDx=0;entryDy=0;entryPerimeter=0;endArrow=none;endFill=0;dashed=1;fontFamily=Times New Roman;fontSize=12;exitX=1;exitY=0.5;exitDx=0;exitDy=0;" edge="1" target="T34eMwIwh6sYFuAVk1EG-17" parent="1" source="T34eMwIwh6sYFuAVk1EG-10">
          <mxGeometry relative="1" as="geometry">
            <mxPoint x="690" y="265" as="sourcePoint" />
          </mxGeometry>
        </mxCell>
        <mxCell id="T34eMwIwh6sYFuAVk1EG-24" style="edgeStyle=orthogonalEdgeStyle;rounded=0;orthogonalLoop=1;jettySize=auto;html=1;exitX=0.5;exitY=1;exitDx=0;exitDy=0;entryX=0.5;entryY=0;entryDx=0;entryDy=0;" edge="1" parent="1" source="T34eMwIwh6sYFuAVk1EG-19" target="T34eMwIwh6sYFuAVk1EG-23">
          <mxGeometry relative="1" as="geometry" />
        </mxCell>
        <mxCell id="T34eMwIwh6sYFuAVk1EG-25" value="1" style="edgeLabel;html=1;align=center;verticalAlign=middle;resizable=0;points=[];" vertex="1" connectable="0" parent="T34eMwIwh6sYFuAVk1EG-24">
          <mxGeometry x="-0.4069" relative="1" as="geometry">
            <mxPoint x="10" as="offset" />
          </mxGeometry>
        </mxCell>
        <mxCell id="T34eMwIwh6sYFuAVk1EG-28" style="edgeStyle=orthogonalEdgeStyle;rounded=0;orthogonalLoop=1;jettySize=auto;html=1;exitX=1;exitY=0.5;exitDx=0;exitDy=0;entryX=0.5;entryY=0;entryDx=0;entryDy=0;" edge="1" parent="1" source="T34eMwIwh6sYFuAVk1EG-19" target="T34eMwIwh6sYFuAVk1EG-27">
          <mxGeometry relative="1" as="geometry" />
        </mxCell>
        <mxCell id="T34eMwIwh6sYFuAVk1EG-99" value="0" style="edgeLabel;html=1;align=center;verticalAlign=middle;resizable=0;points=[];" vertex="1" connectable="0" parent="T34eMwIwh6sYFuAVk1EG-28">
          <mxGeometry x="-0.7167" relative="1" as="geometry">
            <mxPoint x="-25" y="-15" as="offset" />
          </mxGeometry>
        </mxCell>
        <mxCell id="T34eMwIwh6sYFuAVk1EG-19" value="fracPart&amp;nbsp;≠&amp;nbsp;0" style="rhombus;whiteSpace=wrap;html=1;strokeWidth=2;fontFamily=Times New Roman;" vertex="1" parent="1">
          <mxGeometry x="20" y="375" width="200" height="60" as="geometry" />
        </mxCell>
        <mxCell id="T34eMwIwh6sYFuAVk1EG-30" style="edgeStyle=orthogonalEdgeStyle;rounded=0;orthogonalLoop=1;jettySize=auto;html=1;entryX=0.5;entryY=0;entryDx=0;entryDy=0;exitX=0.5;exitY=1;exitDx=0;exitDy=0;" edge="1" parent="1" source="T34eMwIwh6sYFuAVk1EG-23" target="T34eMwIwh6sYFuAVk1EG-29">
          <mxGeometry relative="1" as="geometry" />
        </mxCell>
        <mxCell id="T34eMwIwh6sYFuAVk1EG-23" value="&lt;font face=&quot;Times New Roman&quot;&gt;fracDec = convertFracToDec(fracPart, k)&lt;/font&gt;" style="shape=process;whiteSpace=wrap;html=1;backgroundOutline=1;strokeWidth=2;size=0.05;" vertex="1" parent="1">
          <mxGeometry x="20" y="460" width="200" height="30" as="geometry" />
        </mxCell>
        <mxCell id="T34eMwIwh6sYFuAVk1EG-27" value="fracDec = 0&lt;div&gt;precision = 0&lt;/div&gt;" style="rounded=0;whiteSpace=wrap;html=1;strokeWidth=2;fontFamily=Times New Roman;" vertex="1" parent="1">
          <mxGeometry x="240" y="460" width="200" height="40" as="geometry" />
        </mxCell>
        <mxCell id="T34eMwIwh6sYFuAVk1EG-101" style="edgeStyle=orthogonalEdgeStyle;rounded=0;orthogonalLoop=1;jettySize=auto;html=1;exitX=0.5;exitY=1;exitDx=0;exitDy=0;entryX=0.5;entryY=0;entryDx=0;entryDy=0;" edge="1" parent="1" source="T34eMwIwh6sYFuAVk1EG-29" target="T34eMwIwh6sYFuAVk1EG-100">
          <mxGeometry relative="1" as="geometry" />
        </mxCell>
        <mxCell id="T34eMwIwh6sYFuAVk1EG-29" value="&lt;div&gt;&lt;font face=&quot;Times New Roman&quot;&gt;intRes =&amp;nbsp;&lt;/font&gt;&lt;/div&gt;&lt;font face=&quot;Times New Roman&quot;&gt;convertIntToBase(intDec, m)&lt;/font&gt;" style="shape=process;whiteSpace=wrap;html=1;backgroundOutline=1;strokeWidth=2;size=0.05;" vertex="1" parent="1">
          <mxGeometry x="20" y="510" width="200" height="30" as="geometry" />
        </mxCell>
        <mxCell id="T34eMwIwh6sYFuAVk1EG-36" style="edgeStyle=orthogonalEdgeStyle;rounded=0;orthogonalLoop=1;jettySize=auto;html=1;exitX=0.5;exitY=1;exitDx=0;exitDy=0;entryX=0.5;entryY=0;entryDx=0;entryDy=0;" edge="1" parent="1" source="T34eMwIwh6sYFuAVk1EG-33" target="T34eMwIwh6sYFuAVk1EG-35">
          <mxGeometry relative="1" as="geometry" />
        </mxCell>
        <mxCell id="T34eMwIwh6sYFuAVk1EG-33" value="Ввод fracPart, base" style="shape=parallelogram;perimeter=parallelogramPerimeter;whiteSpace=wrap;html=1;fixedSize=1;size=30;container=0;strokeWidth=2;fontFamily=Times New Roman;fontSize=12;" vertex="1" parent="1">
          <mxGeometry x="470" y="560" width="200" height="30" as="geometry" />
        </mxCell>
        <mxCell id="T34eMwIwh6sYFuAVk1EG-41" style="edgeStyle=orthogonalEdgeStyle;rounded=0;orthogonalLoop=1;jettySize=auto;html=1;exitX=0.5;exitY=1;exitDx=0;exitDy=0;entryX=0.5;entryY=0;entryDx=0;entryDy=0;" edge="1" parent="1" source="T34eMwIwh6sYFuAVk1EG-35" target="T34eMwIwh6sYFuAVk1EG-37">
          <mxGeometry relative="1" as="geometry" />
        </mxCell>
        <mxCell id="T34eMwIwh6sYFuAVk1EG-35" value="decimalVal = 0&lt;div&gt;basePow = 1&lt;br&gt;&lt;div&gt;i = 0&lt;/div&gt;&lt;/div&gt;" style="rounded=0;whiteSpace=wrap;html=1;strokeWidth=2;fontFamily=Times New Roman;" vertex="1" parent="1">
          <mxGeometry x="470" y="610" width="200" height="50" as="geometry" />
        </mxCell>
        <mxCell id="T34eMwIwh6sYFuAVk1EG-42" style="edgeStyle=orthogonalEdgeStyle;rounded=0;orthogonalLoop=1;jettySize=auto;html=1;exitX=0.5;exitY=1;exitDx=0;exitDy=0;entryX=0.5;entryY=0;entryDx=0;entryDy=0;" edge="1" parent="1" source="T34eMwIwh6sYFuAVk1EG-37" target="T34eMwIwh6sYFuAVk1EG-40">
          <mxGeometry relative="1" as="geometry" />
        </mxCell>
        <mxCell id="T34eMwIwh6sYFuAVk1EG-37" value="&lt;div style=&quot;&quot;&gt;&lt;font&gt;A&lt;/font&gt;&lt;/div&gt;&lt;div style=&quot;&quot;&gt;&lt;font&gt;i&amp;nbsp;&lt;span style=&quot;color: rgb(205, 214, 244); text-align: start; text-wrap: nowrap; background-color: initial;&quot;&gt;&lt;font style=&quot;font-size: 12px;&quot;&gt;≤&lt;/font&gt;&lt;/span&gt;&lt;span style=&quot;background-color: initial;&quot;&gt;&amp;nbsp;len(fracPart[i])&lt;/span&gt;&lt;/font&gt;&lt;/div&gt;" style="shape=loopLimit;whiteSpace=wrap;html=1;size=20;direction=east;strokeWidth=2;fontFamily=Times New Roman;" vertex="1" parent="1">
          <mxGeometry x="470" y="680" width="200" height="40" as="geometry" />
        </mxCell>
        <mxCell id="T34eMwIwh6sYFuAVk1EG-46" style="edgeStyle=orthogonalEdgeStyle;rounded=0;orthogonalLoop=1;jettySize=auto;html=1;exitX=0.5;exitY=0;exitDx=0;exitDy=0;entryX=0.5;entryY=0;entryDx=0;entryDy=0;" edge="1" parent="1" source="T34eMwIwh6sYFuAVk1EG-38" target="T34eMwIwh6sYFuAVk1EG-45">
          <mxGeometry relative="1" as="geometry" />
        </mxCell>
        <mxCell id="T34eMwIwh6sYFuAVk1EG-38" value="&lt;div style=&quot;&quot;&gt;&lt;br&gt;&lt;/div&gt;&lt;div style=&quot;&quot;&gt;A&lt;/div&gt;" style="shape=loopLimit;whiteSpace=wrap;html=1;size=20;direction=west;strokeWidth=2;fontFamily=Times New Roman;" vertex="1" parent="1">
          <mxGeometry x="470" y="850" width="200" height="40" as="geometry" />
        </mxCell>
        <mxCell id="T34eMwIwh6sYFuAVk1EG-44" style="edgeStyle=orthogonalEdgeStyle;rounded=0;orthogonalLoop=1;jettySize=auto;html=1;exitX=0.5;exitY=1;exitDx=0;exitDy=0;entryX=0.5;entryY=1;entryDx=0;entryDy=0;" edge="1" parent="1" source="T34eMwIwh6sYFuAVk1EG-39" target="T34eMwIwh6sYFuAVk1EG-38">
          <mxGeometry relative="1" as="geometry" />
        </mxCell>
        <mxCell id="T34eMwIwh6sYFuAVk1EG-39" value="i = i + 1" style="rounded=0;whiteSpace=wrap;html=1;strokeWidth=2;fontFamily=Times New Roman;" vertex="1" parent="1">
          <mxGeometry x="470" y="800" width="200" height="30" as="geometry" />
        </mxCell>
        <mxCell id="T34eMwIwh6sYFuAVk1EG-43" style="edgeStyle=orthogonalEdgeStyle;rounded=0;orthogonalLoop=1;jettySize=auto;html=1;exitX=0.5;exitY=1;exitDx=0;exitDy=0;entryX=0.5;entryY=0;entryDx=0;entryDy=0;" edge="1" parent="1" source="T34eMwIwh6sYFuAVk1EG-40" target="T34eMwIwh6sYFuAVk1EG-39">
          <mxGeometry relative="1" as="geometry" />
        </mxCell>
        <mxCell id="T34eMwIwh6sYFuAVk1EG-40" value="decimalVal = decimalVal + (fracPart[i] - &#39;0&#39;)&amp;nbsp;/ (basePow = basePow * base)" style="rounded=0;whiteSpace=wrap;html=1;strokeWidth=2;fontFamily=Times New Roman;" vertex="1" parent="1">
          <mxGeometry x="470" y="740" width="200" height="40" as="geometry" />
        </mxCell>
        <mxCell id="T34eMwIwh6sYFuAVk1EG-47" style="edgeStyle=orthogonalEdgeStyle;rounded=0;orthogonalLoop=1;jettySize=auto;html=1;exitX=0.5;exitY=1;exitDx=0;exitDy=0;entryX=0.5;entryY=0;entryDx=0;entryDy=0;" edge="1" parent="1" source="T34eMwIwh6sYFuAVk1EG-45" target="MsXIucuG90J7ZM-M7yxq-5">
          <mxGeometry relative="1" as="geometry" />
        </mxCell>
        <mxCell id="T34eMwIwh6sYFuAVk1EG-45" value="Вывод decimalVal" style="shape=parallelogram;perimeter=parallelogramPerimeter;whiteSpace=wrap;html=1;fixedSize=1;size=30;container=0;strokeWidth=2;fontFamily=Times New Roman;fontSize=12;" vertex="1" parent="1">
          <mxGeometry x="470" y="910" width="200" height="30" as="geometry" />
        </mxCell>
        <mxCell id="T34eMwIwh6sYFuAVk1EG-73" style="edgeStyle=orthogonalEdgeStyle;rounded=0;orthogonalLoop=1;jettySize=auto;html=1;exitX=0.5;exitY=0;exitDx=0;exitDy=0;entryX=0.5;entryY=0;entryDx=0;entryDy=0;" edge="1" parent="1" source="T34eMwIwh6sYFuAVk1EG-48" target="T34eMwIwh6sYFuAVk1EG-72">
          <mxGeometry relative="1" as="geometry" />
        </mxCell>
        <mxCell id="T34eMwIwh6sYFuAVk1EG-48" value="&lt;div style=&quot;font-family: &amp;quot;Times New Roman&amp;quot;;&quot;&gt;intDec&amp;nbsp;&lt;span style=&quot;color: rgb(205, 214, 244); text-align: start; text-wrap: nowrap; background-color: initial;&quot;&gt;≤ 0&lt;/span&gt;&lt;/div&gt;&lt;div style=&quot;font-family: &amp;quot;Times New Roman&amp;quot;;&quot;&gt;A&lt;/div&gt;" style="shape=loopLimit;whiteSpace=wrap;html=1;size=20;direction=west;strokeWidth=2;" vertex="1" parent="1">
          <mxGeometry x="840" y="420" width="200" height="40" as="geometry" />
        </mxCell>
        <mxCell id="T34eMwIwh6sYFuAVk1EG-58" style="edgeStyle=orthogonalEdgeStyle;rounded=0;orthogonalLoop=1;jettySize=auto;html=1;exitX=0.5;exitY=1;exitDx=0;exitDy=0;entryX=0.5;entryY=0;entryDx=0;entryDy=0;" edge="1" parent="1" source="T34eMwIwh6sYFuAVk1EG-49" target="T34eMwIwh6sYFuAVk1EG-55">
          <mxGeometry relative="1" as="geometry" />
        </mxCell>
        <mxCell id="T34eMwIwh6sYFuAVk1EG-49" value="&lt;div style=&quot;font-family: &amp;quot;Times New Roman&amp;quot;;&quot;&gt;A&lt;/div&gt;&lt;div style=&quot;font-family: &amp;quot;Times New Roman&amp;quot;;&quot;&gt;&lt;br&gt;&lt;/div&gt;" style="shape=loopLimit;whiteSpace=wrap;html=1;size=20;direction=east;strokeWidth=2;" vertex="1" parent="1">
          <mxGeometry x="840" y="160" width="200" height="40" as="geometry" />
        </mxCell>
        <mxCell id="T34eMwIwh6sYFuAVk1EG-62" style="edgeStyle=orthogonalEdgeStyle;rounded=0;orthogonalLoop=1;jettySize=auto;html=1;exitX=0.5;exitY=1;exitDx=0;exitDy=0;entryX=0.5;entryY=0;entryDx=0;entryDy=0;" edge="1" parent="1" source="T34eMwIwh6sYFuAVk1EG-50" target="T34eMwIwh6sYFuAVk1EG-61">
          <mxGeometry relative="1" as="geometry" />
        </mxCell>
        <mxCell id="T34eMwIwh6sYFuAVk1EG-50" value="Ввод intDec, base" style="shape=parallelogram;perimeter=parallelogramPerimeter;whiteSpace=wrap;html=1;fixedSize=1;size=30;container=0;strokeWidth=2;fontFamily=Times New Roman;fontSize=12;" vertex="1" parent="1">
          <mxGeometry x="840" y="60" width="200" height="30" as="geometry" />
        </mxCell>
        <mxCell id="T34eMwIwh6sYFuAVk1EG-52" value="fracPart - по ссылке,&lt;br&gt;base - по значению." style="strokeWidth=2;html=1;shape=mxgraph.flowchart.annotation_2;align=left;labelPosition=right;pointerEvents=1;container=0;fontFamily=Times New Roman;fontSize=12;" vertex="1" parent="1">
          <mxGeometry x="690" y="555" width="25" height="40" as="geometry" />
        </mxCell>
        <mxCell id="T34eMwIwh6sYFuAVk1EG-53" style="edgeStyle=orthogonalEdgeStyle;rounded=0;orthogonalLoop=1;jettySize=auto;html=1;exitX=1;exitY=0.5;exitDx=0;exitDy=0;entryX=0;entryY=0.5;entryDx=0;entryDy=0;entryPerimeter=0;dashed=1;endArrow=none;endFill=0;" edge="1" parent="1" source="T34eMwIwh6sYFuAVk1EG-33" target="T34eMwIwh6sYFuAVk1EG-52">
          <mxGeometry relative="1" as="geometry" />
        </mxCell>
        <mxCell id="T34eMwIwh6sYFuAVk1EG-65" style="edgeStyle=orthogonalEdgeStyle;rounded=0;orthogonalLoop=1;jettySize=auto;html=1;exitX=0.5;exitY=1;exitDx=0;exitDy=0;entryX=0.5;entryY=0;entryDx=0;entryDy=0;" edge="1" parent="1" source="T34eMwIwh6sYFuAVk1EG-55" target="T34eMwIwh6sYFuAVk1EG-60">
          <mxGeometry relative="1" as="geometry" />
        </mxCell>
        <mxCell id="T34eMwIwh6sYFuAVk1EG-55" value="rem = intDec % base" style="rounded=0;whiteSpace=wrap;html=1;strokeWidth=2;fontFamily=Times New Roman;" vertex="1" parent="1">
          <mxGeometry x="840" y="220" width="200" height="30" as="geometry" />
        </mxCell>
        <mxCell id="T34eMwIwh6sYFuAVk1EG-56" value="% - остаток от деления" style="strokeWidth=2;html=1;shape=mxgraph.flowchart.annotation_2;align=left;labelPosition=right;pointerEvents=1;container=0;fontFamily=Times New Roman;fontSize=12;" vertex="1" parent="1">
          <mxGeometry x="1067.5" y="220" width="22.5" height="30" as="geometry" />
        </mxCell>
        <mxCell id="T34eMwIwh6sYFuAVk1EG-57" style="edgeStyle=orthogonalEdgeStyle;rounded=0;orthogonalLoop=1;jettySize=auto;html=1;entryX=0;entryY=0.5;entryDx=0;entryDy=0;entryPerimeter=0;endArrow=none;endFill=0;dashed=1;fontFamily=Times New Roman;fontSize=12;exitX=1;exitY=0.5;exitDx=0;exitDy=0;" edge="1" target="T34eMwIwh6sYFuAVk1EG-56" parent="1" source="T34eMwIwh6sYFuAVk1EG-55">
          <mxGeometry relative="1" as="geometry">
            <mxPoint x="1000" y="235" as="sourcePoint" />
          </mxGeometry>
        </mxCell>
        <mxCell id="T34eMwIwh6sYFuAVk1EG-66" style="edgeStyle=orthogonalEdgeStyle;rounded=0;orthogonalLoop=1;jettySize=auto;html=1;exitX=0.5;exitY=1;exitDx=0;exitDy=0;entryX=0.5;entryY=0;entryDx=0;entryDy=0;" edge="1" parent="1" source="T34eMwIwh6sYFuAVk1EG-60" target="T34eMwIwh6sYFuAVk1EG-64">
          <mxGeometry relative="1" as="geometry" />
        </mxCell>
        <mxCell id="T34eMwIwh6sYFuAVk1EG-60" value="res[i] = &#39;0&#39; + rem" style="rounded=0;whiteSpace=wrap;html=1;strokeWidth=2;fontFamily=Times New Roman;" vertex="1" parent="1">
          <mxGeometry x="840" y="270" width="200" height="30" as="geometry" />
        </mxCell>
        <mxCell id="T34eMwIwh6sYFuAVk1EG-63" style="edgeStyle=orthogonalEdgeStyle;rounded=0;orthogonalLoop=1;jettySize=auto;html=1;exitX=0.5;exitY=1;exitDx=0;exitDy=0;entryX=0.5;entryY=0;entryDx=0;entryDy=0;" edge="1" parent="1" source="T34eMwIwh6sYFuAVk1EG-61" target="T34eMwIwh6sYFuAVk1EG-49">
          <mxGeometry relative="1" as="geometry" />
        </mxCell>
        <mxCell id="T34eMwIwh6sYFuAVk1EG-61" value="i = 0" style="rounded=0;whiteSpace=wrap;html=1;strokeWidth=2;fontFamily=Times New Roman;" vertex="1" parent="1">
          <mxGeometry x="840" y="110" width="200" height="30" as="geometry" />
        </mxCell>
        <mxCell id="T34eMwIwh6sYFuAVk1EG-68" style="edgeStyle=orthogonalEdgeStyle;rounded=0;orthogonalLoop=1;jettySize=auto;html=1;exitX=0.5;exitY=1;exitDx=0;exitDy=0;entryX=0.5;entryY=0;entryDx=0;entryDy=0;" edge="1" parent="1" source="T34eMwIwh6sYFuAVk1EG-64" target="T34eMwIwh6sYFuAVk1EG-67">
          <mxGeometry relative="1" as="geometry" />
        </mxCell>
        <mxCell id="T34eMwIwh6sYFuAVk1EG-64" value="i = i + 1" style="rounded=0;whiteSpace=wrap;html=1;strokeWidth=2;fontFamily=Times New Roman;" vertex="1" parent="1">
          <mxGeometry x="840" y="320" width="200" height="30" as="geometry" />
        </mxCell>
        <mxCell id="T34eMwIwh6sYFuAVk1EG-69" style="edgeStyle=orthogonalEdgeStyle;rounded=0;orthogonalLoop=1;jettySize=auto;html=1;exitX=0.5;exitY=1;exitDx=0;exitDy=0;entryX=0.5;entryY=1;entryDx=0;entryDy=0;" edge="1" parent="1" source="T34eMwIwh6sYFuAVk1EG-67" target="T34eMwIwh6sYFuAVk1EG-48">
          <mxGeometry relative="1" as="geometry" />
        </mxCell>
        <mxCell id="T34eMwIwh6sYFuAVk1EG-67" value="intDec = intDec / base" style="rounded=0;whiteSpace=wrap;html=1;strokeWidth=2;fontFamily=Times New Roman;" vertex="1" parent="1">
          <mxGeometry x="840" y="370" width="200" height="30" as="geometry" />
        </mxCell>
        <mxCell id="T34eMwIwh6sYFuAVk1EG-72" value="&lt;font&gt;A2&lt;/font&gt;" style="ellipse;whiteSpace=wrap;html=1;aspect=fixed;strokeWidth=2;fontFamily=Times New Roman;" vertex="1" parent="1">
          <mxGeometry x="925" y="480.0000000000001" width="30" height="30" as="geometry" />
        </mxCell>
        <mxCell id="T34eMwIwh6sYFuAVk1EG-76" style="edgeStyle=orthogonalEdgeStyle;rounded=0;orthogonalLoop=1;jettySize=auto;html=1;exitX=0.5;exitY=1;exitDx=0;exitDy=0;entryX=0.5;entryY=0;entryDx=0;entryDy=0;" edge="1" parent="1" source="T34eMwIwh6sYFuAVk1EG-74" target="T34eMwIwh6sYFuAVk1EG-75">
          <mxGeometry relative="1" as="geometry" />
        </mxCell>
        <mxCell id="T34eMwIwh6sYFuAVk1EG-74" value="&lt;font&gt;A2&lt;/font&gt;" style="ellipse;whiteSpace=wrap;html=1;aspect=fixed;strokeWidth=2;fontFamily=Times New Roman;" vertex="1" parent="1">
          <mxGeometry x="1305" y="10.000000000000114" width="30" height="30" as="geometry" />
        </mxCell>
        <mxCell id="T34eMwIwh6sYFuAVk1EG-79" style="edgeStyle=orthogonalEdgeStyle;rounded=0;orthogonalLoop=1;jettySize=auto;html=1;exitX=0.5;exitY=1;exitDx=0;exitDy=0;entryX=0.5;entryY=0;entryDx=0;entryDy=0;" edge="1" parent="1" source="T34eMwIwh6sYFuAVk1EG-75" target="T34eMwIwh6sYFuAVk1EG-78">
          <mxGeometry relative="1" as="geometry" />
        </mxCell>
        <mxCell id="T34eMwIwh6sYFuAVk1EG-75" value="j = 0" style="rounded=0;whiteSpace=wrap;html=1;strokeWidth=2;fontFamily=Times New Roman;" vertex="1" parent="1">
          <mxGeometry x="1220" y="60" width="200" height="30" as="geometry" />
        </mxCell>
        <mxCell id="T34eMwIwh6sYFuAVk1EG-88" style="edgeStyle=orthogonalEdgeStyle;rounded=0;orthogonalLoop=1;jettySize=auto;html=1;exitX=0.5;exitY=0;exitDx=0;exitDy=0;entryX=0.5;entryY=0;entryDx=0;entryDy=0;" edge="1" parent="1" source="T34eMwIwh6sYFuAVk1EG-77" target="T34eMwIwh6sYFuAVk1EG-87">
          <mxGeometry relative="1" as="geometry" />
        </mxCell>
        <mxCell id="T34eMwIwh6sYFuAVk1EG-77" value="&lt;div style=&quot;font-family: &amp;quot;Times New Roman&amp;quot;;&quot;&gt;&lt;br&gt;&lt;/div&gt;&lt;div style=&quot;font-family: &amp;quot;Times New Roman&amp;quot;;&quot;&gt;Б&lt;/div&gt;" style="shape=loopLimit;whiteSpace=wrap;html=1;size=20;direction=west;strokeWidth=2;" vertex="1" parent="1">
          <mxGeometry x="1220" y="320" width="200" height="40" as="geometry" />
        </mxCell>
        <mxCell id="T34eMwIwh6sYFuAVk1EG-81" style="edgeStyle=orthogonalEdgeStyle;rounded=0;orthogonalLoop=1;jettySize=auto;html=1;exitX=0.5;exitY=1;exitDx=0;exitDy=0;entryX=0.5;entryY=0;entryDx=0;entryDy=0;" edge="1" parent="1" source="T34eMwIwh6sYFuAVk1EG-78" target="T34eMwIwh6sYFuAVk1EG-80">
          <mxGeometry relative="1" as="geometry" />
        </mxCell>
        <mxCell id="T34eMwIwh6sYFuAVk1EG-78" value="&lt;div style=&quot;font-family: &amp;quot;Times New Roman&amp;quot;;&quot;&gt;Б&lt;/div&gt;&lt;div style=&quot;font-family: &amp;quot;Times New Roman&amp;quot;;&quot;&gt;j&amp;nbsp;≥&amp;nbsp; i&amp;nbsp;&lt;/div&gt;" style="shape=loopLimit;whiteSpace=wrap;html=1;size=20;direction=east;strokeWidth=2;" vertex="1" parent="1">
          <mxGeometry x="1220" y="110" width="200" height="40" as="geometry" />
        </mxCell>
        <mxCell id="T34eMwIwh6sYFuAVk1EG-83" style="edgeStyle=orthogonalEdgeStyle;rounded=0;orthogonalLoop=1;jettySize=auto;html=1;exitX=0.5;exitY=1;exitDx=0;exitDy=0;entryX=0.5;entryY=0;entryDx=0;entryDy=0;" edge="1" parent="1" source="T34eMwIwh6sYFuAVk1EG-80" target="T34eMwIwh6sYFuAVk1EG-82">
          <mxGeometry relative="1" as="geometry" />
        </mxCell>
        <mxCell id="T34eMwIwh6sYFuAVk1EG-80" value="temp = res[j]" style="rounded=0;whiteSpace=wrap;html=1;strokeWidth=2;fontFamily=Times New Roman;" vertex="1" parent="1">
          <mxGeometry x="1220" y="170" width="200" height="30" as="geometry" />
        </mxCell>
        <mxCell id="T34eMwIwh6sYFuAVk1EG-85" style="edgeStyle=orthogonalEdgeStyle;rounded=0;orthogonalLoop=1;jettySize=auto;html=1;exitX=0.5;exitY=1;exitDx=0;exitDy=0;entryX=0.5;entryY=0;entryDx=0;entryDy=0;" edge="1" parent="1" source="T34eMwIwh6sYFuAVk1EG-82" target="T34eMwIwh6sYFuAVk1EG-84">
          <mxGeometry relative="1" as="geometry" />
        </mxCell>
        <mxCell id="T34eMwIwh6sYFuAVk1EG-82" value="res[i] = res[j - i - 1]" style="rounded=0;whiteSpace=wrap;html=1;strokeWidth=2;fontFamily=Times New Roman;" vertex="1" parent="1">
          <mxGeometry x="1220" y="220" width="200" height="30" as="geometry" />
        </mxCell>
        <mxCell id="T34eMwIwh6sYFuAVk1EG-86" style="edgeStyle=orthogonalEdgeStyle;rounded=0;orthogonalLoop=1;jettySize=auto;html=1;exitX=0.5;exitY=1;exitDx=0;exitDy=0;entryX=0.5;entryY=1;entryDx=0;entryDy=0;" edge="1" parent="1" source="T34eMwIwh6sYFuAVk1EG-84" target="T34eMwIwh6sYFuAVk1EG-77">
          <mxGeometry relative="1" as="geometry" />
        </mxCell>
        <mxCell id="T34eMwIwh6sYFuAVk1EG-84" value="res[i - j - 1] = temp" style="rounded=0;whiteSpace=wrap;html=1;strokeWidth=2;fontFamily=Times New Roman;" vertex="1" parent="1">
          <mxGeometry x="1220" y="270" width="200" height="30" as="geometry" />
        </mxCell>
        <mxCell id="T34eMwIwh6sYFuAVk1EG-89" style="edgeStyle=orthogonalEdgeStyle;rounded=0;orthogonalLoop=1;jettySize=auto;html=1;exitX=0.5;exitY=1;exitDx=0;exitDy=0;entryX=0.5;entryY=0;entryDx=0;entryDy=0;" edge="1" parent="1" source="T34eMwIwh6sYFuAVk1EG-87" target="MsXIucuG90J7ZM-M7yxq-1">
          <mxGeometry relative="1" as="geometry" />
        </mxCell>
        <mxCell id="T34eMwIwh6sYFuAVk1EG-87" value="Вывод res" style="shape=parallelogram;perimeter=parallelogramPerimeter;whiteSpace=wrap;html=1;fixedSize=1;size=30;container=0;strokeWidth=2;fontFamily=Times New Roman;fontSize=12;" vertex="1" parent="1">
          <mxGeometry x="1220" y="380" width="200" height="30" as="geometry" />
        </mxCell>
        <mxCell id="T34eMwIwh6sYFuAVk1EG-130" style="edgeStyle=orthogonalEdgeStyle;rounded=0;orthogonalLoop=1;jettySize=auto;html=1;exitX=0.5;exitY=1;exitDx=0;exitDy=0;entryX=0.5;entryY=0;entryDx=0;entryDy=0;" edge="1" parent="1" source="T34eMwIwh6sYFuAVk1EG-90" target="T34eMwIwh6sYFuAVk1EG-129">
          <mxGeometry relative="1" as="geometry" />
        </mxCell>
        <mxCell id="T34eMwIwh6sYFuAVk1EG-90" value="&lt;div&gt;&lt;font face=&quot;Times New Roman&quot;&gt;fracRes =&amp;nbsp;&lt;/font&gt;&lt;/div&gt;&lt;font face=&quot;Times New Roman&quot;&gt;convertFracToBase(intDec, m, precision)&lt;/font&gt;" style="shape=process;whiteSpace=wrap;html=1;backgroundOutline=1;strokeWidth=2;size=0.05;" vertex="1" parent="1">
          <mxGeometry x="20" y="610" width="200" height="50" as="geometry" />
        </mxCell>
        <mxCell id="T34eMwIwh6sYFuAVk1EG-95" style="edgeStyle=orthogonalEdgeStyle;rounded=0;orthogonalLoop=1;jettySize=auto;html=1;exitX=0.5;exitY=1;exitDx=0;exitDy=0;entryX=0.5;entryY=0;entryDx=0;entryDy=0;" edge="1" parent="1" source="T34eMwIwh6sYFuAVk1EG-92" target="T34eMwIwh6sYFuAVk1EG-94">
          <mxGeometry relative="1" as="geometry" />
        </mxCell>
        <mxCell id="T34eMwIwh6sYFuAVk1EG-92" value="Начало&lt;div&gt;convertFracToBase&lt;br&gt;&lt;/div&gt;" style="rounded=1;whiteSpace=wrap;html=1;arcSize=50;container=0;strokeWidth=2;fontFamily=Times New Roman;fontSize=12;" vertex="1" parent="1">
          <mxGeometry x="840" y="530" width="200" height="30" as="geometry" />
        </mxCell>
        <mxCell id="T34eMwIwh6sYFuAVk1EG-93" value="Конец&lt;div&gt;convertFracToBase&lt;br&gt;&lt;/div&gt;" style="rounded=1;whiteSpace=wrap;html=1;arcSize=50;container=0;strokeWidth=2;fontFamily=Times New Roman;fontSize=12;" vertex="1" parent="1">
          <mxGeometry x="1060" y="890" width="200" height="30" as="geometry" />
        </mxCell>
        <mxCell id="T34eMwIwh6sYFuAVk1EG-108" style="edgeStyle=orthogonalEdgeStyle;rounded=0;orthogonalLoop=1;jettySize=auto;html=1;exitX=0.5;exitY=1;exitDx=0;exitDy=0;entryX=0.5;entryY=0;entryDx=0;entryDy=0;" edge="1" parent="1" source="T34eMwIwh6sYFuAVk1EG-94" target="T34eMwIwh6sYFuAVk1EG-107">
          <mxGeometry relative="1" as="geometry" />
        </mxCell>
        <mxCell id="T34eMwIwh6sYFuAVk1EG-94" value="Ввод fracDec, base, precision" style="shape=parallelogram;perimeter=parallelogramPerimeter;whiteSpace=wrap;html=1;fixedSize=1;size=30;container=0;strokeWidth=2;fontFamily=Times New Roman;fontSize=12;" vertex="1" parent="1">
          <mxGeometry x="840" y="580" width="200" height="30" as="geometry" />
        </mxCell>
        <mxCell id="T34eMwIwh6sYFuAVk1EG-96" value="fracDec - по ссылке,&lt;br&gt;base - по значению,&lt;div&gt;precision - точность, по знач.&lt;/div&gt;" style="strokeWidth=2;html=1;shape=mxgraph.flowchart.annotation_2;align=left;labelPosition=right;pointerEvents=1;container=0;fontFamily=Times New Roman;fontSize=12;" vertex="1" parent="1">
          <mxGeometry x="1060" y="572.5" width="25" height="45" as="geometry" />
        </mxCell>
        <mxCell id="T34eMwIwh6sYFuAVk1EG-97" style="edgeStyle=orthogonalEdgeStyle;rounded=0;orthogonalLoop=1;jettySize=auto;html=1;exitX=1;exitY=0.5;exitDx=0;exitDy=0;entryX=0;entryY=0.5;entryDx=0;entryDy=0;entryPerimeter=0;endArrow=none;endFill=0;dashed=1;" edge="1" parent="1" source="T34eMwIwh6sYFuAVk1EG-94" target="T34eMwIwh6sYFuAVk1EG-96">
          <mxGeometry relative="1" as="geometry" />
        </mxCell>
        <mxCell id="T34eMwIwh6sYFuAVk1EG-102" style="edgeStyle=orthogonalEdgeStyle;rounded=0;orthogonalLoop=1;jettySize=auto;html=1;exitX=0.5;exitY=1;exitDx=0;exitDy=0;entryX=0.5;entryY=0;entryDx=0;entryDy=0;" edge="1" parent="1" source="T34eMwIwh6sYFuAVk1EG-100" target="T34eMwIwh6sYFuAVk1EG-90">
          <mxGeometry relative="1" as="geometry" />
        </mxCell>
        <mxCell id="T34eMwIwh6sYFuAVk1EG-100" value="precision = ceil(len(fracPart) *&lt;br&gt;&amp;nbsp;log&lt;sub&gt;m&lt;/sub&gt;k)" style="rounded=0;whiteSpace=wrap;html=1;strokeWidth=2;fontFamily=Times New Roman;" vertex="1" parent="1">
          <mxGeometry x="20" y="560" width="200" height="30" as="geometry" />
        </mxCell>
        <mxCell id="T34eMwIwh6sYFuAVk1EG-104" value="ceil - округление вверх,&lt;br&gt;len - длина массива" style="strokeWidth=2;html=1;shape=mxgraph.flowchart.annotation_2;align=left;labelPosition=right;pointerEvents=1;container=0;fontFamily=Times New Roman;fontSize=12;" vertex="1" parent="1">
          <mxGeometry x="260" y="560" width="25" height="30" as="geometry" />
        </mxCell>
        <mxCell id="T34eMwIwh6sYFuAVk1EG-105" style="edgeStyle=orthogonalEdgeStyle;rounded=0;orthogonalLoop=1;jettySize=auto;html=1;entryX=0;entryY=0.5;entryDx=0;entryDy=0;entryPerimeter=0;endArrow=none;endFill=0;dashed=1;fontFamily=Times New Roman;fontSize=12;exitX=1;exitY=0.5;exitDx=0;exitDy=0;" edge="1" target="T34eMwIwh6sYFuAVk1EG-104" parent="1" source="T34eMwIwh6sYFuAVk1EG-100">
          <mxGeometry relative="1" as="geometry">
            <mxPoint x="260" y="575" as="sourcePoint" />
          </mxGeometry>
        </mxCell>
        <mxCell id="T34eMwIwh6sYFuAVk1EG-113" style="edgeStyle=orthogonalEdgeStyle;rounded=0;orthogonalLoop=1;jettySize=auto;html=1;exitX=0.5;exitY=1;exitDx=0;exitDy=0;entryX=0.5;entryY=0;entryDx=0;entryDy=0;" edge="1" parent="1" source="T34eMwIwh6sYFuAVk1EG-107" target="T34eMwIwh6sYFuAVk1EG-110">
          <mxGeometry relative="1" as="geometry" />
        </mxCell>
        <mxCell id="T34eMwIwh6sYFuAVk1EG-107" value="i = 0" style="rounded=0;whiteSpace=wrap;html=1;strokeWidth=2;fontFamily=Times New Roman;" vertex="1" parent="1">
          <mxGeometry x="840" y="630" width="200" height="30" as="geometry" />
        </mxCell>
        <mxCell id="T34eMwIwh6sYFuAVk1EG-127" style="edgeStyle=orthogonalEdgeStyle;rounded=0;orthogonalLoop=1;jettySize=auto;html=1;exitX=0.5;exitY=0;exitDx=0;exitDy=0;entryX=0.5;entryY=0;entryDx=0;entryDy=0;" edge="1" parent="1" source="T34eMwIwh6sYFuAVk1EG-109" target="T34eMwIwh6sYFuAVk1EG-126">
          <mxGeometry relative="1" as="geometry" />
        </mxCell>
        <mxCell id="T34eMwIwh6sYFuAVk1EG-109" value="&lt;div style=&quot;font-family: &amp;quot;Times New Roman&amp;quot;;&quot;&gt;&lt;br&gt;&lt;/div&gt;&lt;div style=&quot;font-family: &amp;quot;Times New Roman&amp;quot;;&quot;&gt;A&lt;/div&gt;" style="shape=loopLimit;whiteSpace=wrap;html=1;size=20;direction=west;strokeWidth=2;" vertex="1" parent="1">
          <mxGeometry x="1060" y="780" width="200" height="40" as="geometry" />
        </mxCell>
        <mxCell id="T34eMwIwh6sYFuAVk1EG-115" style="edgeStyle=orthogonalEdgeStyle;rounded=0;orthogonalLoop=1;jettySize=auto;html=1;exitX=0.5;exitY=1;exitDx=0;exitDy=0;entryX=0.5;entryY=0;entryDx=0;entryDy=0;" edge="1" parent="1" source="T34eMwIwh6sYFuAVk1EG-110" target="T34eMwIwh6sYFuAVk1EG-114">
          <mxGeometry relative="1" as="geometry" />
        </mxCell>
        <mxCell id="T34eMwIwh6sYFuAVk1EG-110" value="&lt;div style=&quot;font-family: &amp;quot;Times New Roman&amp;quot;;&quot;&gt;A&lt;/div&gt;&lt;div style=&quot;font-family: &amp;quot;Times New Roman&amp;quot;;&quot;&gt;precision&amp;nbsp;≤ 0&lt;/div&gt;" style="shape=loopLimit;whiteSpace=wrap;html=1;size=20;direction=east;strokeWidth=2;" vertex="1" parent="1">
          <mxGeometry x="840" y="680" width="200" height="40" as="geometry" />
        </mxCell>
        <mxCell id="T34eMwIwh6sYFuAVk1EG-112" style="edgeStyle=orthogonalEdgeStyle;rounded=0;orthogonalLoop=1;jettySize=auto;html=1;exitX=0.5;exitY=1;exitDx=0;exitDy=0;entryX=0.5;entryY=1;entryDx=0;entryDy=0;" edge="1" parent="1" source="T34eMwIwh6sYFuAVk1EG-111" target="T34eMwIwh6sYFuAVk1EG-109">
          <mxGeometry relative="1" as="geometry" />
        </mxCell>
        <mxCell id="T34eMwIwh6sYFuAVk1EG-111" value="precision = precision - 1" style="rounded=0;whiteSpace=wrap;html=1;strokeWidth=2;fontFamily=Times New Roman;" vertex="1" parent="1">
          <mxGeometry x="1060" y="730" width="200" height="30" as="geometry" />
        </mxCell>
        <mxCell id="T34eMwIwh6sYFuAVk1EG-117" style="edgeStyle=orthogonalEdgeStyle;rounded=0;orthogonalLoop=1;jettySize=auto;html=1;exitX=0.5;exitY=1;exitDx=0;exitDy=0;entryX=0.5;entryY=0;entryDx=0;entryDy=0;" edge="1" parent="1" source="T34eMwIwh6sYFuAVk1EG-114" target="T34eMwIwh6sYFuAVk1EG-116">
          <mxGeometry relative="1" as="geometry" />
        </mxCell>
        <mxCell id="T34eMwIwh6sYFuAVk1EG-114" value="fracDec = fracDec * base" style="rounded=0;whiteSpace=wrap;html=1;strokeWidth=2;fontFamily=Times New Roman;" vertex="1" parent="1">
          <mxGeometry x="840" y="740" width="200" height="30" as="geometry" />
        </mxCell>
        <mxCell id="T34eMwIwh6sYFuAVk1EG-119" style="edgeStyle=orthogonalEdgeStyle;rounded=0;orthogonalLoop=1;jettySize=auto;html=1;exitX=0.5;exitY=1;exitDx=0;exitDy=0;entryX=0.5;entryY=0;entryDx=0;entryDy=0;" edge="1" parent="1" source="T34eMwIwh6sYFuAVk1EG-116" target="T34eMwIwh6sYFuAVk1EG-118">
          <mxGeometry relative="1" as="geometry" />
        </mxCell>
        <mxCell id="T34eMwIwh6sYFuAVk1EG-116" value="res[i] = &#39;0&#39; + int(fracDec)" style="rounded=0;whiteSpace=wrap;html=1;strokeWidth=2;fontFamily=Times New Roman;" vertex="1" parent="1">
          <mxGeometry x="840" y="790" width="200" height="30" as="geometry" />
        </mxCell>
        <mxCell id="T34eMwIwh6sYFuAVk1EG-121" style="edgeStyle=orthogonalEdgeStyle;rounded=0;orthogonalLoop=1;jettySize=auto;html=1;exitX=0.5;exitY=1;exitDx=0;exitDy=0;entryX=0.5;entryY=0;entryDx=0;entryDy=0;" edge="1" parent="1" source="T34eMwIwh6sYFuAVk1EG-118" target="T34eMwIwh6sYFuAVk1EG-120">
          <mxGeometry relative="1" as="geometry" />
        </mxCell>
        <mxCell id="T34eMwIwh6sYFuAVk1EG-118" value="i = i + 1" style="rounded=0;whiteSpace=wrap;html=1;strokeWidth=2;fontFamily=Times New Roman;" vertex="1" parent="1">
          <mxGeometry x="840" y="840" width="200" height="30" as="geometry" />
        </mxCell>
        <mxCell id="T34eMwIwh6sYFuAVk1EG-120" value="&lt;font&gt;A3&lt;/font&gt;" style="ellipse;whiteSpace=wrap;html=1;aspect=fixed;strokeWidth=2;fontFamily=Times New Roman;" vertex="1" parent="1">
          <mxGeometry x="925" y="890" width="30" height="30" as="geometry" />
        </mxCell>
        <mxCell id="T34eMwIwh6sYFuAVk1EG-123" style="edgeStyle=orthogonalEdgeStyle;rounded=0;orthogonalLoop=1;jettySize=auto;html=1;exitX=0.5;exitY=1;exitDx=0;exitDy=0;entryX=0.5;entryY=0;entryDx=0;entryDy=0;" edge="1" parent="1" source="T34eMwIwh6sYFuAVk1EG-122" target="T34eMwIwh6sYFuAVk1EG-111">
          <mxGeometry relative="1" as="geometry" />
        </mxCell>
        <mxCell id="T34eMwIwh6sYFuAVk1EG-122" value="fracDec = fracDec - int(fracDec)" style="rounded=0;whiteSpace=wrap;html=1;strokeWidth=2;fontFamily=Times New Roman;" vertex="1" parent="1">
          <mxGeometry x="1060" y="680" width="200" height="30" as="geometry" />
        </mxCell>
        <mxCell id="T34eMwIwh6sYFuAVk1EG-125" style="edgeStyle=orthogonalEdgeStyle;rounded=0;orthogonalLoop=1;jettySize=auto;html=1;exitX=0.5;exitY=1;exitDx=0;exitDy=0;entryX=0.5;entryY=0;entryDx=0;entryDy=0;" edge="1" parent="1" source="T34eMwIwh6sYFuAVk1EG-124" target="T34eMwIwh6sYFuAVk1EG-122">
          <mxGeometry relative="1" as="geometry" />
        </mxCell>
        <mxCell id="T34eMwIwh6sYFuAVk1EG-124" value="&lt;font&gt;A3&lt;/font&gt;" style="ellipse;whiteSpace=wrap;html=1;aspect=fixed;strokeWidth=2;fontFamily=Times New Roman;" vertex="1" parent="1">
          <mxGeometry x="1145" y="630.0000000000001" width="30" height="30" as="geometry" />
        </mxCell>
        <mxCell id="T34eMwIwh6sYFuAVk1EG-128" style="edgeStyle=orthogonalEdgeStyle;rounded=0;orthogonalLoop=1;jettySize=auto;html=1;exitX=0.5;exitY=1;exitDx=0;exitDy=0;entryX=0.5;entryY=0;entryDx=0;entryDy=0;" edge="1" parent="1" source="T34eMwIwh6sYFuAVk1EG-126" target="T34eMwIwh6sYFuAVk1EG-93">
          <mxGeometry relative="1" as="geometry" />
        </mxCell>
        <mxCell id="T34eMwIwh6sYFuAVk1EG-126" value="Вывод res" style="shape=parallelogram;perimeter=parallelogramPerimeter;whiteSpace=wrap;html=1;fixedSize=1;size=30;container=0;strokeWidth=2;fontFamily=Times New Roman;fontSize=12;" vertex="1" parent="1">
          <mxGeometry x="1060" y="840" width="200" height="30" as="geometry" />
        </mxCell>
        <mxCell id="T34eMwIwh6sYFuAVk1EG-132" style="edgeStyle=orthogonalEdgeStyle;rounded=0;orthogonalLoop=1;jettySize=auto;html=1;exitX=0.5;exitY=1;exitDx=0;exitDy=0;entryX=0.5;entryY=0;entryDx=0;entryDy=0;" edge="1" parent="1" source="T34eMwIwh6sYFuAVk1EG-129" target="T34eMwIwh6sYFuAVk1EG-131">
          <mxGeometry relative="1" as="geometry" />
        </mxCell>
        <mxCell id="T34eMwIwh6sYFuAVk1EG-133" value="1" style="edgeLabel;html=1;align=center;verticalAlign=middle;resizable=0;points=[];" vertex="1" connectable="0" parent="T34eMwIwh6sYFuAVk1EG-132">
          <mxGeometry x="-0.3597" y="2" relative="1" as="geometry">
            <mxPoint x="8" y="-5" as="offset" />
          </mxGeometry>
        </mxCell>
        <mxCell id="T34eMwIwh6sYFuAVk1EG-134" style="edgeStyle=orthogonalEdgeStyle;rounded=0;orthogonalLoop=1;jettySize=auto;html=1;exitX=1;exitY=0.5;exitDx=0;exitDy=0;entryX=0.5;entryY=0;entryDx=0;entryDy=0;" edge="1" parent="1" source="T34eMwIwh6sYFuAVk1EG-129" target="T34eMwIwh6sYFuAVk1EG-135">
          <mxGeometry relative="1" as="geometry">
            <mxPoint x="319.9999999999999" y="760" as="targetPoint" />
          </mxGeometry>
        </mxCell>
        <mxCell id="T34eMwIwh6sYFuAVk1EG-129" value="precision &amp;gt; 0" style="rhombus;whiteSpace=wrap;html=1;strokeWidth=2;fontFamily=Times New Roman;" vertex="1" parent="1">
          <mxGeometry x="20" y="680" width="200" height="60" as="geometry" />
        </mxCell>
        <mxCell id="T34eMwIwh6sYFuAVk1EG-137" style="edgeStyle=orthogonalEdgeStyle;rounded=0;orthogonalLoop=1;jettySize=auto;html=1;exitX=0.5;exitY=1;exitDx=0;exitDy=0;entryX=0.5;entryY=0;entryDx=0;entryDy=0;" edge="1" parent="1" source="T34eMwIwh6sYFuAVk1EG-131" target="T34eMwIwh6sYFuAVk1EG-136">
          <mxGeometry relative="1" as="geometry" />
        </mxCell>
        <mxCell id="T34eMwIwh6sYFuAVk1EG-131" value="Вывод intRes, &#39;.&#39;, fracRes" style="shape=parallelogram;perimeter=parallelogramPerimeter;whiteSpace=wrap;html=1;fixedSize=1;size=30;container=0;strokeWidth=2;fontFamily=Times New Roman;fontSize=12;" vertex="1" parent="1">
          <mxGeometry x="20" y="770" width="200" height="30" as="geometry" />
        </mxCell>
        <mxCell id="T34eMwIwh6sYFuAVk1EG-138" style="edgeStyle=orthogonalEdgeStyle;rounded=0;orthogonalLoop=1;jettySize=auto;html=1;exitX=0.5;exitY=1;exitDx=0;exitDy=0;entryX=0.5;entryY=0;entryDx=0;entryDy=0;" edge="1" parent="1" source="T34eMwIwh6sYFuAVk1EG-135" target="T34eMwIwh6sYFuAVk1EG-136">
          <mxGeometry relative="1" as="geometry">
            <Array as="points">
              <mxPoint x="330" y="820" />
              <mxPoint x="120" y="820" />
            </Array>
          </mxGeometry>
        </mxCell>
        <mxCell id="T34eMwIwh6sYFuAVk1EG-135" value="Вывод intRes" style="shape=parallelogram;perimeter=parallelogramPerimeter;whiteSpace=wrap;html=1;fixedSize=1;size=30;container=0;strokeWidth=2;fontFamily=Times New Roman;fontSize=12;" vertex="1" parent="1">
          <mxGeometry x="230" y="770" width="200" height="30" as="geometry" />
        </mxCell>
        <mxCell id="T34eMwIwh6sYFuAVk1EG-136" value="Конец" style="rounded=1;whiteSpace=wrap;html=1;arcSize=50;container=0;strokeWidth=2;fontFamily=Times New Roman;fontSize=12;" vertex="1" parent="1">
          <mxGeometry x="20" y="840" width="200" height="30" as="geometry" />
        </mxCell>
        <mxCell id="T34eMwIwh6sYFuAVk1EG-141" style="edgeStyle=orthogonalEdgeStyle;rounded=0;orthogonalLoop=1;jettySize=auto;html=1;exitX=0.5;exitY=0;exitDx=0;exitDy=0;" edge="1" parent="1" source="T34eMwIwh6sYFuAVk1EG-139">
          <mxGeometry relative="1" as="geometry">
            <mxPoint x="330" y="820" as="targetPoint" />
          </mxGeometry>
        </mxCell>
        <mxCell id="T34eMwIwh6sYFuAVk1EG-139" value="&lt;font&gt;A1&lt;/font&gt;" style="ellipse;whiteSpace=wrap;html=1;aspect=fixed;strokeWidth=2;fontFamily=Times New Roman;" vertex="1" parent="1">
          <mxGeometry x="315" y="840.0000000000001" width="30" height="30" as="geometry" />
        </mxCell>
      </root>
    </mxGraphModel>
  </diagram>
</mxfile>
